<svg width="122" height="121" viewBox="0 0 122 121" fill="none" xmlns="http://www.w3.org/2000/svg">
<path d="M106.305 -60.484C85.3847 -67.9727 64.7812 -74.2778 43.9219 -62.8669C13.8816 -46.4337 2.25194 -15.2077 0.818837 17.4781C0.263179 30.1514 1.98958 43.5369 10.6475 53.509C21.877 66.443 41.0922 67.9487 57.0051 67.4762C69.4797 67.1059 81.4717 64.6311 92.7643 59.2609C105.955 52.9879 121.57 43.8239 127.682 29.7889C131.538 20.9364 131.713 10.3556 131.696 0.87595C131.683 -6.58644 130.921 -14.0473 127.303 -20.7178C121.523 -31.376 109.448 -35.7656 98.1267 -37.4079C67.582 -41.8386 46.8106 -12.9972 40.6372 13.8198C35.1927 37.4703 37.4623 69.4682 68.1163 70.3898C90.3892 71.0595 112.473 56.9701 124.037 38.5577C128.027 32.2055 135.936 13.3672 126.346 7.53301C113.328 -0.387519 95.833 9.66806 85.8112 17.7892C72.1451 28.8633 65.5633 42.5946 64.648 60.0845C63.4025 83.883 86.6631 106.383 106.327 116.188C111.537 118.786 118.455 121.993 124.302 119.436C129.016 117.374 132.496 113.294 135.892 109.652" stroke="#FFD3BB" stroke-linecap="round" stroke-linejoin="round"/>
</svg>
