<svg width="172" height="43" viewBox="0 0 172 43" fill="none" xmlns="http://www.w3.org/2000/svg">
<path d="M47.2578 26.1507C47.2578 29.1349 49.766 31.5121 53.4531 31.5121C56.5884 31.5121 59.3976 29.7165 59.523 26.5806C59.6484 24.5321 58.6953 22.3572 54.8076 21.2698L52.6756 20.6375C50.8195 20.1823 50.6188 19.1454 50.6188 18.6396C50.6188 17.4004 51.7726 16.5911 53.2023 16.5911C54.8076 16.5911 55.7858 17.4763 55.7858 18.8672H58.9963C58.9963 15.6301 56.5131 13.607 53.2525 13.607C50.067 13.607 47.4334 15.6554 47.4334 18.7155C47.4334 20.2329 48.0354 22.4837 51.7977 23.5711L53.9297 24.1275C55.5851 24.5827 56.3877 25.3667 56.3125 26.5047C56.2372 27.6934 55.1838 28.6038 53.4531 28.6038C51.597 28.6038 50.5436 27.4405 50.4683 26.1507H47.2578Z" fill="#E1E8FF"/>
<path d="M66.0761 14.922H63.0412V19.4236H60.9092V21.902H63.0412V31.2339H66.0761V21.902H68.5593V19.4236H66.0761V14.922Z" fill="#E1E8FF"/>
<path d="M78.4313 25.7208C78.4313 27.7692 77.1772 28.4773 75.898 28.4773C74.8194 28.4773 73.6656 27.7692 73.6656 25.8472V19.4236H70.5805V26.4036C70.5805 29.7418 72.4115 31.4868 75.1957 31.4868C76.3745 31.4868 77.7791 30.8293 78.4313 29.5648V31.2339H81.4913V19.4236H78.4313V25.7208Z" fill="#E1E8FF"/>
<path d="M93.5404 31.2339H96.5753V13H93.5404V20.9916C92.8631 19.8029 91.4334 19.1707 89.8533 19.1707C86.7682 19.1707 84.1094 21.5732 84.1094 25.3414C84.1094 29.0843 86.7682 31.4868 89.8533 31.4868C91.3833 31.4868 92.8631 30.8293 93.5404 29.6407V31.2339ZM93.4902 25.2908C93.4902 27.2634 92.0354 28.5279 90.3549 28.5279C88.6493 28.5279 87.2698 27.2381 87.2698 25.2908C87.2698 23.3688 88.6493 22.1043 90.3549 22.1043C91.9602 22.1043 93.4902 23.2677 93.4902 25.2908Z" fill="#E1E8FF"/>
<path d="M110.783 19.4236H107.522L104.588 26.7829L101.678 19.4236H98.4175L102.982 30.3235L100.299 37H103.534L110.783 19.4236Z" fill="#E1E8FF"/>
<path d="M109.669 16.7682H114.535V31.2339H117.77V16.7682H122.636V13.8093H109.669V16.7682Z" fill="#E1E8FF"/>
<path d="M128.284 28.4521C126.579 28.4521 125.224 27.2129 125.224 25.2908C125.224 23.3941 126.579 22.2055 128.284 22.2055C129.99 22.2055 131.344 23.3941 131.344 25.2908C131.344 27.2129 129.99 28.4521 128.284 28.4521ZM128.284 31.4615C131.595 31.4615 134.379 29.0084 134.379 25.2908C134.379 21.5479 131.595 19.1707 128.284 19.1707C124.973 19.1707 122.189 21.5479 122.189 25.2908C122.189 29.0084 124.973 31.4615 128.284 31.4615Z" fill="#E1E8FF"/>
<path d="M140.058 27.0611C140.058 23.9252 140.911 22.0537 142.993 22.0537C143.294 22.0537 144.046 22.0537 144.773 22.3825L145.3 19.6006C144.824 19.3224 144.197 19.1707 143.369 19.1707C142.04 19.1707 140.66 20.0558 140.058 22.2055V19.4236H136.998V31.2339H140.058V27.0611Z" fill="#E1E8FF"/>
<path d="M146.187 25.2908C146.187 29.0084 149.147 31.4868 152.508 31.4868C154.515 31.4868 156.295 30.6523 157.399 29.1602L154.941 27.3393C154.364 28.1233 153.486 28.5279 152.508 28.5279C150.802 28.5279 149.222 27.2129 149.222 25.2908C149.222 23.3688 150.802 22.1549 152.508 22.1549C153.486 22.1549 154.364 22.5342 154.941 23.3182L157.374 21.4721C156.27 19.98 154.49 19.1707 152.508 19.1707C149.147 19.1707 146.187 21.5479 146.187 25.2908Z" fill="#E1E8FF"/>
<path d="M162.905 24.9368C162.905 22.8883 164.435 22.1802 165.715 22.1802C166.969 22.1802 168.198 23.1159 168.198 24.8103V31.2339H171.258V24.6586C171.258 21.1939 169.577 19.1707 166.542 19.1707C165.389 19.1707 163.432 19.8282 162.905 21.2445V13H159.845V31.2339H162.905V24.9368Z" fill="#E1E8FF"/>
<g filter="url(#filter0_b_558_29406)">
<path d="M8.93069 3L20.1487 3C22.3717 3 24.4944 3.92492 26.0079 5.55299L31.8592 11.847C33.2352 13.3271 34 15.2731 34 17.294L34 34.02C34 38.98 30.0198 43 25.1089 43H9.34654C4.19802 43 0 38.78 0 33.58L0 12.02C0 7.06 4 3 8.93069 3Z" fill="#E1E8FF"/>
</g>
<path fill-rule="evenodd" clip-rule="evenodd" d="M13.1056 16.6577H6.41256C5.60068 16.6577 4.92741 17.3377 4.92741 18.1577C4.92741 18.9777 5.60068 19.6377 6.41256 19.6377H13.1056C13.9175 19.6377 14.5908 18.9777 14.5908 18.1577C14.5908 17.3377 13.9175 16.6577 13.1056 16.6577ZM6.41215 29.6373H17.1844C17.9963 29.6373 18.6696 28.9573 18.6696 28.1373C18.6696 27.3173 17.9963 26.6573 17.1844 26.6573H6.41215C5.60027 26.6573 4.927 27.3173 4.927 28.1373C4.927 28.9573 5.60027 29.6373 6.41215 29.6373Z" fill="#6C5ECF"/>
<g filter="url(#filter1_bd_558_29406)">
<path d="M25.4674 15.7472C26.8476 15.7612 28.7665 15.7672 30.3942 15.7612C31.2278 15.7592 31.6516 14.7532 31.0734 14.1472C28.9823 11.9512 25.2417 8.02117 23.1011 5.77317C22.509 5.15117 21.4734 5.57917 21.4734 6.44117V11.7132C21.4734 13.9252 23.2773 15.7472 25.4674 15.7472Z" fill="#6C5ECF"/>
</g>
<path d="M38.4281 25.5653L26.2346 37.7949C25.6005 38.4109 24.7671 38.7551 23.8974 38.7551H19.6396C19.4041 38.7551 19.1867 38.6645 19.0236 38.5015C18.8606 38.3384 18.7881 38.121 18.7881 37.8855L18.8968 33.5915C18.9149 32.74 19.2592 31.9428 19.8571 31.3449L28.4994 22.7026C28.6443 22.5577 28.898 22.5577 29.0429 22.7026L32.0686 25.7102C32.2679 25.9095 32.5578 26.0363 32.8658 26.0363C33.5362 26.0363 34.0616 25.4928 34.0616 24.8405C34.0616 24.5144 33.9348 24.2245 33.7355 24.0071C33.6812 23.9346 30.8004 21.072 30.8004 21.072C30.6192 20.8908 30.6192 20.5828 30.8004 20.4017L32.0143 19.1696C33.1376 18.0463 34.9494 18.0463 36.0727 19.1696L38.4281 21.525C39.5333 22.6302 39.5333 24.442 38.4281 25.5653Z" fill="#F7936F"/>
<defs>
<filter id="filter0_b_558_29406" x="-24" y="-21" width="82" height="88" filterUnits="userSpaceOnUse" color-interpolation-filters="sRGB">
<feFlood flood-opacity="0" result="BackgroundImageFix"/>
<feGaussianBlur in="BackgroundImage" stdDeviation="12"/>
<feComposite in2="SourceAlpha" operator="in" result="effect1_backgroundBlur_558_29406"/>
<feBlend mode="normal" in="SourceGraphic" in2="effect1_backgroundBlur_558_29406" result="shape"/>
</filter>
<filter id="filter1_bd_558_29406" x="6.47339" y="-9.52173" width="39.8667" height="40.2852" filterUnits="userSpaceOnUse" color-interpolation-filters="sRGB">
<feFlood flood-opacity="0" result="BackgroundImageFix"/>
<feGaussianBlur in="BackgroundImage" stdDeviation="7.5"/>
<feComposite in2="SourceAlpha" operator="in" result="effect1_backgroundBlur_558_29406"/>
<feColorMatrix in="SourceAlpha" type="matrix" values="0 0 0 0 0 0 0 0 0 0 0 0 0 0 0 0 0 0 127 0" result="hardAlpha"/>
<feOffset dx="5" dy="5"/>
<feGaussianBlur stdDeviation="5"/>
<feColorMatrix type="matrix" values="0 0 0 0 0.577356 0 0 0 0 0.359375 0 0 0 0 0.9375 0 0 0 0.25 0"/>
<feBlend mode="normal" in2="effect1_backgroundBlur_558_29406" result="effect2_dropShadow_558_29406"/>
<feBlend mode="normal" in="SourceGraphic" in2="effect2_dropShadow_558_29406" result="shape"/>
</filter>
</defs>
</svg>
