<svg width="64" height="64" viewBox="0 0 64 64" fill="none" xmlns="http://www.w3.org/2000/svg">
<path d="M10.81 3.51001H54.2C54.6578 3.51001 55.1112 3.60035 55.5341 3.77586C55.9569 3.95137 56.341 4.2086 56.6643 4.53281C56.9876 4.85702 57.2437 5.24183 57.418 5.6652C57.5923 6.08857 57.6813 6.54217 57.68 7.00001V12.26C57.68 12.717 57.59 13.1695 57.4151 13.5917C57.2402 14.014 56.9839 14.3976 56.6607 14.7207C56.3376 15.0439 55.954 15.3002 55.5317 15.4751C55.1095 15.65 54.657 15.74 54.2 15.74H9.2C8.27705 15.74 7.3919 15.3734 6.73927 14.7207C6.08664 14.0681 5.72 13.183 5.72 12.26V8.56001C5.72 7.23393 6.24679 5.96216 7.18447 5.02448C8.12215 4.08679 9.39392 3.56001 10.72 3.56001L10.81 3.51001Z" fill="#1CA9FF"/>
<path d="M45 3.51001L45.11 10.91L49.62 10.85V7.30001C49.6226 6.29738 50.0214 5.33641 50.7294 4.6265C51.4375 3.9166 52.3974 3.51528 53.4 3.51001H45Z" fill="#5D53DB"/>
<path opacity="0.63" d="M60.07 54.41C59.9128 54.5189 59.7363 54.597 59.55 54.64C59.7378 54.6014 59.9151 54.523 60.07 54.41ZM58.44 54.41C58.5986 54.519 58.7798 54.5907 58.97 54.62C58.7833 54.5952 58.6032 54.5341 58.44 54.44V54.41Z" fill="#3E33C9"/>
<path d="M45.4 59.9L26.6 43.5L8.12999 59.84C7.76842 60.158 7.32362 60.3661 6.84785 60.4401C6.37207 60.514 5.88508 60.4507 5.44405 60.2575C5.00303 60.0643 4.6263 59.7492 4.35811 59.3493C4.08991 58.9495 3.94139 58.4814 3.92999 58V7.26C3.92999 6.25483 4.3293 5.29083 5.04006 4.58007C5.75082 3.8693 6.71482 3.47 7.71999 3.47H49.59V58C49.5882 58.4846 49.4473 58.9585 49.184 59.3653C48.9208 59.7721 48.5462 60.0948 48.1049 60.2949C47.6635 60.495 47.174 60.5642 46.6945 60.4942C46.215 60.4242 45.7657 60.218 45.4 59.9Z" fill="#5D53DB"/>
<path d="M26.57 10.88C29.03 10.882 31.4341 11.6133 33.4786 12.9814C35.523 14.3495 37.1159 16.2931 38.0559 18.5663C38.9959 20.8396 39.2409 23.3406 38.7597 25.7531C38.2786 28.1655 37.093 30.3812 35.3529 32.1199C33.6127 33.8587 31.3961 35.0425 28.9832 35.5217C26.5704 36.0009 24.0696 35.754 21.7971 34.8121C19.5246 33.8703 17.5823 32.2758 16.2158 30.2303C14.8493 28.1847 14.12 25.78 14.12 23.32C14.1226 20.0198 15.4355 16.8557 17.7701 14.523C20.1046 12.1903 23.2698 10.88 26.57 10.88ZM26.57 9.38C23.8129 9.38 21.1178 10.1976 18.8253 11.7293C16.5329 13.2611 14.7462 15.4382 13.6911 17.9854C12.636 20.5326 12.36 23.3355 12.8978 26.0396C13.4357 28.7437 14.7634 31.2275 16.7129 33.1771C18.6625 35.1266 21.1463 36.4543 23.8504 36.9921C26.5545 37.53 29.3574 37.254 31.9046 36.1989C34.4518 35.1438 36.6289 33.3571 38.1607 31.0647C39.6924 28.7722 40.51 26.0771 40.51 23.32C40.5073 19.6237 39.0378 16.0795 36.4241 13.4659C33.8105 10.8522 30.2663 9.38265 26.57 9.38Z" fill="#1CA9FF"/>
<path d="M28.71 16.23L30.52 20.49C30.5718 20.6177 30.6582 20.7285 30.7695 20.8097C30.8808 20.891 31.0126 20.9396 31.15 20.95L35.77 21.36C35.9185 21.3709 36.0604 21.4258 36.1775 21.5176C36.2947 21.6095 36.3819 21.7341 36.4281 21.8757C36.4742 22.0172 36.4771 22.1693 36.4365 22.3126C36.3959 22.4558 36.3136 22.5837 36.2 22.68L32.7 25.73C32.597 25.8203 32.5204 25.9367 32.4781 26.067C32.4359 26.1972 32.4296 26.3365 32.46 26.47L33.46 30.98C33.4959 31.1245 33.4879 31.2763 33.4372 31.4163C33.3865 31.5562 33.2952 31.6779 33.1751 31.7658C33.055 31.8537 32.9115 31.9039 32.7628 31.91C32.6141 31.9161 32.4669 31.8778 32.34 31.8L28.34 29.42C28.2233 29.3462 28.0881 29.3071 27.95 29.3071C27.8119 29.3071 27.6767 29.3462 27.56 29.42L23.56 31.8C23.4371 31.8499 23.3032 31.8668 23.1717 31.849C23.0402 31.8311 22.9157 31.7792 22.8106 31.6983C22.7054 31.6174 22.6232 31.5104 22.5722 31.3878C22.5213 31.2653 22.5033 31.1316 22.52 31L23.52 26.49C23.5538 26.3566 23.5493 26.2163 23.5068 26.0854C23.4643 25.9544 23.3857 25.8382 23.28 25.75L19.79 22.7C19.6765 22.6037 19.5941 22.4758 19.5535 22.3326C19.5129 22.1893 19.5158 22.0372 19.562 21.8957C19.6081 21.7541 19.6953 21.6295 19.8125 21.5376C19.9297 21.4458 20.0715 21.3909 20.22 21.38L24.87 21C25.0078 20.9907 25.1401 20.9426 25.2516 20.8612C25.3631 20.7798 25.4492 20.6684 25.5 20.54L27.32 16.28C27.371 16.1395 27.4627 16.0174 27.5836 15.9294C27.7044 15.8414 27.8488 15.7915 27.9981 15.7861C28.1475 15.7807 28.2951 15.8201 28.4219 15.8992C28.5488 15.9783 28.6491 16.0935 28.71 16.23Z" fill="#3E33C9"/>
<path d="M27.28 15.4L29.09 19.67C29.1467 19.7954 29.236 19.9032 29.3486 19.9823C29.4611 20.0615 29.5928 20.109 29.73 20.12L34.34 20.53C34.4883 20.5435 34.6293 20.6003 34.7456 20.6933C34.8618 20.7863 34.9482 20.9114 34.994 21.0531C35.0398 21.1947 35.043 21.3467 35.0032 21.4902C34.9634 21.6336 34.8823 21.7622 34.77 21.86L31.28 24.86C31.1752 24.9489 31.0973 25.0652 31.0549 25.1959C31.0125 25.3266 31.0074 25.4665 31.04 25.6L32.04 30.11C32.0765 30.2482 32.0732 30.3939 32.0307 30.5303C31.9881 30.6668 31.9079 30.7885 31.7993 30.8814C31.6907 30.9743 31.5581 31.0348 31.4167 31.0557C31.2753 31.0767 31.1309 31.0574 31 31L27 28.62C26.8833 28.5463 26.7481 28.5071 26.61 28.5071C26.4719 28.5071 26.3367 28.5463 26.22 28.62L22.22 31C22.0923 31.0759 21.9452 31.1128 21.7968 31.106C21.6485 31.0993 21.5053 31.0492 21.3851 30.9619C21.2649 30.8747 21.1729 30.7542 21.1204 30.6152C21.068 30.4762 21.0574 30.3249 21.09 30.18L22.14 25.67C22.1704 25.5365 22.1641 25.3972 22.1219 25.267C22.0796 25.1367 22.003 25.0203 21.9 24.93L18.4 21.93C18.2877 21.8322 18.2066 21.7036 18.1668 21.5602C18.127 21.4167 18.1302 21.2647 18.176 21.1231C18.2218 20.9814 18.3082 20.8563 18.4244 20.7633C18.5407 20.6703 18.6817 20.6135 18.83 20.6L23.45 20.19C23.5854 20.1773 23.715 20.129 23.8257 20.0499C23.9363 19.9709 24.0241 19.864 24.08 19.74L25.89 15.47C25.9388 15.3285 26.0288 15.2048 26.1484 15.1149C26.268 15.0249 26.4119 14.9729 26.5613 14.9653C26.7108 14.9578 26.8592 14.9952 26.9872 15.0726C27.1153 15.1501 27.2173 15.2641 27.28 15.4Z" fill="#FF8E66"/>
</svg>
