<svg width="64" height="64" viewBox="0 0 64 64" fill="none" xmlns="http://www.w3.org/2000/svg">
<path d="M41 25.12L40.82 25.18C34.9242 26.7824 28.705 26.7617 22.82 25.12V15.12H41V25.12Z" fill="#E66B00"/>
<path d="M27.45 48V48.37C27.4526 48.7888 27.3723 49.204 27.2135 49.5916C27.0548 49.9791 26.8208 50.3314 26.5251 50.628C26.2294 50.9246 25.8779 51.1597 25.4908 51.3197C25.1038 51.4797 24.6888 51.5613 24.27 51.56H5.27C4.47435 51.56 3.71129 51.2439 3.14868 50.6813C2.58607 50.1187 2.27 49.3557 2.27 48.56C2.25522 48.3503 2.25522 48.1397 2.27 47.93C2.44187 45.0589 3.59085 42.3331 5.52604 40.2053C7.46124 38.0775 10.0662 36.6758 12.9081 36.2331C15.75 35.7904 18.6579 36.3333 21.1486 37.7717C23.6393 39.21 25.563 41.4572 26.6 44.14C26.7323 44.4666 26.8459 44.8004 26.94 45.14C27.227 46.0687 27.3982 47.0293 27.45 48Z" fill="#5D53DB"/>
<path d="M14.87 34.56C18.4322 34.56 21.32 31.6722 21.32 28.11C21.32 24.5478 18.4322 21.66 14.87 21.66C11.3078 21.66 8.42 24.5478 8.42 28.11C8.42 31.6722 11.3078 34.56 14.87 34.56Z" fill="#5D53DB"/>
<path d="M61.72 49.15C61.72 49.9456 61.4039 50.7087 60.8413 51.2713C60.2787 51.8339 59.5156 52.15 58.72 52.15H39.53C38.7343 52.15 37.9713 51.8339 37.4087 51.2713C36.8461 50.7087 36.53 49.9456 36.53 49.15C36.5153 48.9236 36.5153 48.6964 36.53 48.47C36.5915 47.395 36.7932 46.3327 37.13 45.31C37.24 44.97 37.37 44.64 37.5 44.31C38.606 41.6867 40.5678 39.5153 43.0657 38.1495C45.5636 36.7838 48.4504 36.3042 51.2558 36.789C54.0611 37.2737 56.6196 38.6942 58.5143 40.819C60.4091 42.9438 61.5284 45.6477 61.69 48.49C61.7172 48.7089 61.7273 48.9296 61.72 49.15Z" fill="#3E33C9"/>
<path d="M49.13 35.14C52.6922 35.14 55.58 32.2522 55.58 28.69C55.58 25.1278 52.6922 22.24 49.13 22.24C45.5678 22.24 42.68 25.1278 42.68 28.69C42.68 32.2522 45.5678 35.14 49.13 35.14Z" fill="#3E33C9"/>
<g opacity="0.63">
<path opacity="0.63" d="M37.52 44.35C37.39 44.68 37.26 45.01 37.15 45.35C40.078 46.7148 42.3694 49.153 43.55 52.16H44.7C44.0796 50.4478 43.1254 48.8759 41.8929 47.5352C40.6604 46.1946 39.1741 45.1119 37.52 44.35ZM19.21 51.57H20.38C21.6982 48.6741 24.0631 46.3842 27 45.16C26.9059 44.8204 26.7923 44.4866 26.66 44.16C23.2954 45.5491 20.6172 48.213 19.21 51.57Z" fill="#3E33C9"/>
</g>
<path d="M48.36 13.85L33 22.11C32.6918 22.2729 32.3486 22.358 32 22.358C31.6514 22.358 31.3082 22.2729 31 22.11L15.6 13.85C15.5129 13.7988 15.4407 13.7257 15.3905 13.638C15.3403 13.5503 15.3139 13.451 15.3139 13.35C15.3139 13.249 15.3403 13.1497 15.3905 13.062C15.4407 12.9743 15.5129 12.9012 15.6 12.85L31 4.58C31.3068 4.41283 31.6506 4.32524 32 4.32524C32.3494 4.32524 32.6932 4.41283 33 4.58L48.4 12.84C48.4904 12.8918 48.5649 12.9674 48.6153 13.0586C48.6658 13.1497 48.6903 13.253 48.6862 13.3571C48.6821 13.4613 48.6495 13.5622 48.592 13.6491C48.5345 13.736 48.4542 13.8055 48.36 13.85Z" fill="#FF8E66"/>
<path d="M41.44 59.68H22.25C21.4544 59.68 20.6913 59.3639 20.1287 58.8013C19.5661 58.2387 19.25 57.4756 19.25 56.68C19.25 55.68 19.25 56.18 19.25 56.09C19.4078 52.8611 20.8015 49.8167 23.1425 47.5873C25.4834 45.3579 28.5923 44.1144 31.825 44.1144C35.0577 44.1144 38.1666 45.3579 40.5075 47.5873C42.8485 49.8167 44.2422 52.8611 44.4 56.09C44.4 56.18 44.4 55.69 44.4 56.66C44.4054 57.4522 44.0971 58.2144 43.5426 58.7802C42.988 59.346 42.2322 59.6695 41.44 59.68Z" fill="#1CA9FF"/>
<path d="M31.84 42.66C35.4022 42.66 38.29 39.7722 38.29 36.21C38.29 32.6478 35.4022 29.76 31.84 29.76C28.2778 29.76 25.39 32.6478 25.39 36.21C25.39 39.7722 28.2778 42.66 31.84 42.66Z" fill="#1CA9FF"/>
</svg>
