<svg width="64" height="64" viewBox="0 0 64 64" fill="none" xmlns="http://www.w3.org/2000/svg">
<path d="M54.58 47L49.36 49L34.61 54.9L24.61 58.9C23.7888 59.2227 22.8734 59.2084 22.0627 58.8601C21.2519 58.5118 20.6113 57.8578 20.28 57.04L4.8 18.24C4.47494 17.4204 4.48821 16.5053 4.83689 15.6955C5.18558 14.8856 5.84121 14.2471 6.66 13.92L9.23 12.92L36.59 2C37.411 1.67457 38.3275 1.68757 39.139 2.03614C39.9504 2.38471 40.5908 3.04048 40.92 3.86L52.92 33.86L56.46 42.7C56.7777 43.5198 56.7584 44.4319 56.4062 45.2375C56.054 46.043 55.3975 46.6766 54.58 47Z" fill="#1CA9FF"/>
<path d="M54.58 47L49.36 49L34.61 54.9L24.61 58.9C23.7888 59.2227 22.8734 59.2084 22.0627 58.8601C21.2519 58.5118 20.6113 57.8578 20.28 57.04L4.8 18.24C4.47494 17.4204 4.48821 16.5053 4.83689 15.6955C5.18558 14.8856 5.84121 14.2471 6.66 13.92L9.23 12.92L36.59 2C37.411 1.67457 38.3275 1.68757 39.139 2.03614C39.9504 2.38471 40.5908 3.04048 40.92 3.86L52.92 33.86L56.46 42.7C56.7777 43.5198 56.7584 44.4319 56.4062 45.2375C56.054 46.043 55.3975 46.6766 54.58 47Z" fill="#1CA9FF"/>
<path d="M46.86 53.59L35.42 56.38L15.89 61.15C15.4415 61.2588 14.976 61.2781 14.52 61.2067C14.0641 61.1354 13.6267 60.9748 13.2329 60.7343C12.8391 60.4937 12.4965 60.1779 12.2249 59.8048C11.9533 59.4317 11.7579 59.0087 11.65 58.56L1.83 18.29C1.61329 17.3857 1.76432 16.4323 2.24992 15.6392C2.73552 14.8461 3.516 14.2781 4.42 14.06L9.23 12.88L35.37 6.5C35.8185 6.39122 36.284 6.37194 36.7399 6.44328C37.1959 6.51461 37.6333 6.67516 38.0271 6.91572C38.4209 7.15629 38.7634 7.47216 39.0351 7.84525C39.3067 8.21834 39.502 8.64132 39.61 9.09L45.51 33.31L49.36 49L49.43 49.32C49.5449 49.7692 49.5695 50.2368 49.5022 50.6956C49.4349 51.1544 49.2771 51.5952 49.038 51.9925C48.7989 52.3897 48.4832 52.7356 48.1093 53.0098C47.7354 53.284 47.3108 53.4813 46.86 53.59Z" fill="#5D53DB"/>
<path d="M46.86 53.59L35.42 56.38L15.89 61.15C15.4415 61.2588 14.976 61.2781 14.52 61.2067C14.0641 61.1354 13.6267 60.9748 13.2329 60.7343C12.8391 60.4937 12.4965 60.1779 12.2249 59.8048C11.9533 59.4317 11.7579 59.0087 11.65 58.56L1.83 18.29C1.61329 17.3857 1.76432 16.4323 2.24992 15.6392C2.73552 14.8461 3.516 14.2781 4.42 14.06L9.23 12.88L35.37 6.5C35.8185 6.39122 36.284 6.37194 36.7399 6.44328C37.1959 6.51461 37.6333 6.67516 38.0271 6.91572C38.4209 7.15629 38.7634 7.47216 39.0351 7.84525C39.3067 8.21834 39.502 8.64132 39.61 9.09L45.51 33.31L49.36 49L49.43 49.32C49.5449 49.7692 49.5695 50.2368 49.5022 50.6956C49.4349 51.1544 49.2771 51.5952 49.038 51.9925C48.7989 52.3897 48.4832 52.7356 48.1093 53.0098C47.7354 53.284 47.3108 53.4813 46.86 53.59Z" fill="#5D53DB"/>
<path d="M34.0894 16.9441L16.9415 21.1243C16.2279 21.2982 15.7904 22.0178 15.9644 22.7314L18.1717 31.7863C18.3457 32.4999 19.0652 32.9374 19.7788 32.7634L36.9267 28.5832C37.6403 28.4093 38.0778 27.6897 37.9039 26.9761L35.6965 17.9212C35.5226 17.2076 34.803 16.7701 34.0894 16.9441Z" fill="#948AFF"/>
<path d="M4.41168 14.0516L7.26803 13.3553L18.7476 60.4463L15.8912 61.1426C14.9868 61.3631 14.0318 61.2153 13.2364 60.7316C12.441 60.248 11.8703 59.4682 11.6498 58.5638L1.83284 18.2931C1.61237 17.3886 1.7602 16.4337 2.24383 15.6383C2.72746 14.8428 3.50725 14.2721 4.41168 14.0516Z" fill="#3E33C9"/>
<path opacity="0.63" d="M54.58 47L49.36 49L49.43 49.32C49.6501 50.2217 49.503 51.174 49.021 51.9672C48.539 52.7605 47.7617 53.3298 46.86 53.55L35.42 56.38C35.1267 55.92 34.8567 55.44 34.61 54.94C33.5724 52.8338 33.0379 50.5154 33.0486 48.1675C33.0592 45.8196 33.6147 43.5062 34.6713 41.4095C35.7279 39.3127 37.2568 37.4899 39.1376 36.0844C41.0184 34.6789 43.1998 33.7292 45.51 33.31C46.3966 33.1412 47.2974 33.0575 48.2 33.06C49.7958 33.0586 51.3818 33.3083 52.9 33.8L56.44 42.64C56.6071 43.0481 56.6916 43.4853 56.6884 43.9263C56.6852 44.3672 56.5944 44.8032 56.4214 45.2088C56.2483 45.6144 55.9965 45.9816 55.6804 46.2891C55.3643 46.5966 54.9902 46.8382 54.58 47Z" fill="#3E33C9"/>
<path d="M48.06 62.12C55.8251 62.12 62.12 55.8251 62.12 48.06C62.12 40.2949 55.8251 34 48.06 34C40.2949 34 34 40.2949 34 48.06C34 55.8251 40.2949 62.12 48.06 62.12Z" fill="#FF8E66"/>
<path d="M48.32 36.97C48.7729 36.97 49.14 36.6029 49.14 36.15C49.14 35.6971 48.7729 35.33 48.32 35.33C47.8671 35.33 47.5 35.6971 47.5 36.15C47.5 36.6029 47.8671 36.97 48.32 36.97Z" fill="#C74F24"/>
<path d="M48.32 60.58C48.7729 60.58 49.14 60.2129 49.14 59.76C49.14 59.3071 48.7729 58.94 48.32 58.94C47.8671 58.94 47.5 59.3071 47.5 59.76C47.5 60.2129 47.8671 60.58 48.32 60.58Z" fill="#C74F24"/>
<path d="M60.12 48.77C60.5729 48.77 60.94 48.4029 60.94 47.95C60.94 47.4971 60.5729 47.13 60.12 47.13C59.6671 47.13 59.3 47.4971 59.3 47.95C59.3 48.4029 59.6671 48.77 60.12 48.77Z" fill="#C74F24"/>
<path d="M36.51 48.77C36.9629 48.77 37.33 48.4029 37.33 47.95C37.33 47.4971 36.9629 47.13 36.51 47.13C36.0571 47.13 35.69 47.4971 35.69 47.95C35.69 48.4029 36.0571 48.77 36.51 48.77Z" fill="#C74F24"/>
<path d="M34.62 14.26L31.68 12.91L29.57 15.42L27.74 7.47L32.79 6.31L34.62 14.26Z" fill="#3E33C9"/>
<circle cx="48" cy="48" r="1" fill="#3E33C9"/>
<rect x="50" y="46.5" width="9" height="1.25123" rx="0.625615" transform="rotate(-30 50 46.5)" fill="#3E33C9"/>
<rect x="40.5918" y="43.6916" width="6.44908" height="1.34355" rx="0.671776" transform="rotate(26.1358 40.5918 43.6916)" fill="#3E33C9"/>
</svg>
