<?xml version="1.0" encoding="UTF-8"?>
<svg width="60px" height="39px" viewBox="0 0 60 39" version="1.1" xmlns="http://www.w3.org/2000/svg" xmlns:xlink="http://www.w3.org/1999/xlink">
    <title>group-studies</title>
    <g id="Page-1" stroke="none" stroke-width="1" fill="none" fill-rule="evenodd">
        <g id="group-studies" transform="translate(0.000000, 0.334760)" fill-rule="nonzero">
            <path d="M25.1911462,26.34 L25.1911462,26.71 C25.193685,27.1288 25.113385,27.544 24.954585,27.9316 C24.795885,28.3191 24.561885,28.6714 24.266185,28.968 C23.970485,29.2646 23.618985,29.4997 23.231885,29.6597 C22.844885,29.8197 22.429885,29.9013 22.011085,29.9000153 L3.011085,29.9000153 C2.215435,29.9000153 1.452375,29.5839 0.889765,29.0213 C0.327155,28.4587 0.011085,27.6957 0.011085,26.9 C-0.003695,26.6903 -0.003695,26.4797 0.011085,26.27 C0.182955,23.3989 1.331935,20.6731 3.267125,18.5453 C5.202325,16.4175 7.807285,15.0158 10.649185,14.5731 C13.491085,14.1304 16.398985,14.6733 18.889685,16.1117 C21.380385,17.55 23.304085,19.7972 24.341085,22.48 C24.473385,22.8066 24.586985,23.1404 24.681085,23.48 C24.968085,24.4087 25.139285,25.3693 25.1911462,26.34 Z" id="Path" fill="#5D53DB"></path>
            <path d="M12.611085,12.9 C16.173285,12.9 19.061085,10.0122 19.061085,6.45 C19.061085,2.8878 16.173285,-3.55271368e-15 12.611085,-3.55271368e-15 C9.048885,-3.55271368e-15 6.161085,2.8878 6.161085,6.45 C6.161085,10.0122 9.048885,12.9 12.611085,12.9 Z" id="Path" fill="#5D53DB"></path>
            <path d="M59.461085,27.49 C59.461085,28.2856 59.144985,29.0487 58.582385,29.6113 C58.019785,30.1739 57.256685,30.49 56.461085,30.49 L37.271085,30.49 C36.475385,30.49 35.712385,30.1739 35.149785,29.6113 C34.587185,29.0487 34.271085,28.2856 34.271085,27.49 C34.256385,27.2636 34.256385,27.0364 34.271085,26.81 C34.332585,25.735 34.534285,24.6727 34.871085,23.65 C34.981085,23.31 35.111085,22.98 35.241085,22.65 C36.347085,20.0267 38.308885,17.8553 40.806785,16.4895 C43.304685,15.1238 46.191485,14.6442 48.996885,15.129 C51.802185,15.6137 54.360685,17.0342 56.255385,19.159 C58.150185,21.2838 59.269485,23.9877 59.431085,26.83 C59.458285,27.0489 59.468385,27.2696 59.461085,27.49 Z" id="Path" fill="#3E33C9"></path>
            <path d="M46.871085,13.48 C50.433285,13.48 53.321085,10.5922 53.321085,7.03 C53.321085,3.4678 50.433285,0.58 46.871085,0.58 C43.308885,0.58 40.421085,3.4678 40.421085,7.03 C40.421085,10.5922 43.308885,13.48 46.871085,13.48 Z" id="Path" fill="#3E33C9"></path>
            <g id="Group" opacity="0.63" transform="translate(16.951085, 22.500000)" fill="#3E33C9">
                <path d="M18.31,0.19 C18.18,0.52 18.05,0.85 17.94,1.19 C20.868,2.5548 23.1594,4.993 24.34,8 L25.49,8 C24.8696,6.2878 23.9154,4.7159 22.6829,3.3752 C21.4504,2.0346 19.9641,0.9519 18.31,0.19 Z M0,7.41 L1.17,7.41 C2.4882,4.5141 4.8531,2.2242 7.79,1 C7.6959,0.6604 7.5823,0.3266 7.45,0 C4.0854,1.3891 1.4072,4.053 0,7.41 Z" id="Shape"></path>
            </g>
            <path d="M39.181085,38.02 L19.991085,38.02 C19.195485,38.02 18.432385,37.7039 17.869785,37.1413 C17.307185,36.5787 16.991085,35.8156 16.991085,35.02 C16.991085,34.02 16.991085,34.52 16.991085,34.43 C17.148885,31.2011 18.542585,28.1567 20.883585,25.9273 C23.224485,23.6979 26.333385,22.4544 29.566085,22.4544 C32.798785,22.4544 35.907685,23.6979 38.248585,25.9273 C40.589585,28.1567 41.983285,31.2011 42.1411548,34.43 C42.1411548,34.52 42.1411548,34.03 42.1411548,35 C42.146485,35.7922 41.838185,36.5544 41.283685,37.1202 C40.729085,37.686 39.973285,38.0095 39.181085,38.02 Z" id="Path" fill="#1CA9FF"></path>
            <path d="M29.581085,21 C33.143285,21 36.031085,18.1122 36.031085,14.55 C36.031085,10.9878 33.143285,8.1 29.581085,8.1 C26.018885,8.1 23.131085,10.9878 23.131085,14.55 C23.131085,18.1122 26.018885,21 29.581085,21 Z" id="Path" fill="#1CA9FF"></path>
        </g>
    </g>
</svg>