<svg width="64" height="64" viewBox="0 0 64 64" fill="none" xmlns="http://www.w3.org/2000/svg">
<path d="M50.7 9.84999V53C50.6868 54.0654 50.2544 55.0828 49.4963 55.8315C48.7381 56.5802 47.7155 57.0001 46.65 57H12.47C12.0883 57 11.7104 56.9247 11.3579 56.7783C11.0054 56.6319 10.6853 56.4174 10.4158 56.1471C10.1464 55.8767 9.93302 55.5558 9.78787 55.2028C9.64272 54.8498 9.56868 54.4717 9.57 54.09V9.84999C9.56868 9.46785 9.64265 9.08918 9.78768 8.73562C9.93271 8.38206 10.146 8.06053 10.4152 7.78938C10.6845 7.51823 11.0046 7.30278 11.3572 7.15533C11.7097 7.00787 12.0879 6.9313 12.47 6.92999H47.78C48.5544 6.92999 49.2971 7.23763 49.8448 7.78524C50.3924 8.33285 50.7 9.07556 50.7 9.84999Z" fill="#5D53DB"/>
<path d="M4.27 47.38H39.89C40.622 47.38 41.324 47.6708 41.8416 48.1884C42.3592 48.706 42.65 49.408 42.65 50.14V54.3C42.65 55.032 42.3592 55.734 41.8416 56.2516C41.324 56.7692 40.622 57.06 39.89 57.06H5.52C4.45913 57.06 3.44172 56.6386 2.69157 55.8884C1.94143 55.1383 1.52 54.1209 1.52 53.06V50.14C1.52 49.408 1.81079 48.706 2.32839 48.1884C2.84599 47.6708 3.548 47.38 4.28 47.38H4.27Z" fill="#1CA9FF"/>
<path d="M39.08 57.07V51.2H42.65V53.2C42.6499 54.2134 43.0483 55.1862 43.7593 55.9084C44.4702 56.6306 45.4367 57.0442 46.45 57.06H39.08V57.07Z" fill="#1CA9FF"/>
<path d="M37.83 12.31H14.96C14.3856 12.31 13.92 12.7756 13.92 13.35V17.7C13.92 18.2744 14.3856 18.74 14.96 18.74H37.83C38.4044 18.74 38.87 18.2744 38.87 17.7V13.35C38.87 12.7756 38.4044 12.31 37.83 12.31Z" fill="#948AFF"/>
<path opacity="0.63" d="M58 16.38C58.1495 16.4095 58.2921 16.4672 58.42 16.55C58.2949 16.4619 58.1512 16.4038 58 16.38ZM57.55 16.38C57.3988 16.4038 57.2552 16.4619 57.13 16.55C57.27 16.4623 57.4266 16.4044 57.59 16.38H57.55ZM36.72 36L35.43 41.56C35.3728 41.7946 35.3701 42.0391 35.4221 42.2748C35.4741 42.5106 35.5794 42.7313 35.73 42.92C35.8811 43.1126 36.0739 43.2684 36.2938 43.3758C36.5138 43.4832 36.7552 43.5393 37 43.54C37.1262 43.5546 37.2538 43.5546 37.38 43.54L42.89 42.2C43.2702 42.1021 43.6162 41.9014 43.89 41.62L50.65 34.86V33.3L43.15 40.8C42.9989 40.9522 42.8085 41.0595 42.6 41.11L37.09 42.44C36.9951 42.4649 36.8953 42.4649 36.8003 42.4399C36.7054 42.415 36.6185 42.3659 36.5481 42.2975C36.4777 42.2291 36.4262 42.1437 36.3985 42.0495C36.3708 41.9554 36.3678 41.8556 36.39 41.76L37.68 36.21C37.7319 35.9941 37.8426 35.7967 38 35.64L50.7 23V21.52L37.31 34.9C37.0144 35.2043 36.81 35.5854 36.72 36Z" fill="#3E33C9"/>
<path d="M62.14 21.86L50.7 33.3L43.2 40.8C43.0489 40.9522 42.8585 41.0595 42.65 41.11L37.14 42.44C37.0451 42.4649 36.9453 42.4649 36.8503 42.4399C36.7554 42.415 36.6685 42.3659 36.5981 42.2975C36.5277 42.2291 36.4762 42.1437 36.4485 42.0495C36.4208 41.9554 36.4178 41.8556 36.44 41.76L37.73 36.21C37.7819 35.9941 37.8926 35.7967 38.05 35.64L50.7 23L57 16.71L57.19 16.55C57.3151 16.4619 57.4588 16.4038 57.61 16.38C57.7593 16.3599 57.9107 16.3599 58.06 16.38C58.2112 16.4038 58.3549 16.4619 58.48 16.55L58.67 16.71L62.16 20.19C62.2685 20.3009 62.354 20.4321 62.4117 20.5761C62.4694 20.7201 62.4981 20.874 62.4963 21.0292C62.4944 21.1843 62.462 21.3375 62.4009 21.48C62.3397 21.6226 62.2511 21.7517 62.14 21.86Z" fill="#FF8E66"/>
<path d="M33.16 22.37H14.45C14.1573 22.37 13.92 22.6073 13.92 22.9V23.9C13.92 24.1927 14.1573 24.43 14.45 24.43H33.16C33.4527 24.43 33.69 24.1927 33.69 23.9V22.9C33.69 22.6073 33.4527 22.37 33.16 22.37Z" fill="#3E33C9"/>
<path d="M42.67 25.75H14.56C14.2065 25.75 13.92 26.0365 13.92 26.39V27.17C13.92 27.5235 14.2065 27.81 14.56 27.81H42.67C43.0235 27.81 43.31 27.5235 43.31 27.17V26.39C43.31 26.0365 43.0235 25.75 42.67 25.75Z" fill="#3E33C9"/>
<path d="M33.16 29.12H14.45C14.1573 29.12 13.92 29.3573 13.92 29.65V30.65C13.92 30.9427 14.1573 31.18 14.45 31.18H33.16C33.4527 31.18 33.69 30.9427 33.69 30.65V29.65C33.69 29.3573 33.4527 29.12 33.16 29.12Z" fill="#3E33C9"/>
</svg>
