<svg width="64" height="64" viewBox="0 0 64 64" fill="none" xmlns="http://www.w3.org/2000/svg">
<path d="M49.85 32C49.737 33.0755 49.9002 34.1621 50.324 35.157C50.7478 36.1519 51.4183 37.0223 52.2722 37.6859C53.126 38.3496 54.135 38.7846 55.2037 38.9498C56.2724 39.115 57.3657 39.0049 58.38 38.63C58.461 38.6032 58.5471 38.5959 58.6314 38.6087C58.7157 38.6216 58.7958 38.6542 58.8651 38.704C58.9343 38.7537 58.9908 38.8192 59.0299 38.895C59.069 38.9707 59.0896 39.0547 59.09 39.14V47.14C59.09 47.9357 58.7739 48.6987 58.2113 49.2613C57.6487 49.8239 56.8857 50.14 56.09 50.14H48.22C48.1267 50.1376 48.0342 50.1574 47.9501 50.1977C47.8659 50.238 47.7925 50.2977 47.7359 50.3719C47.6793 50.446 47.6411 50.5326 47.6244 50.6244C47.6078 50.7162 47.6131 50.8107 47.64 50.9C47.8124 51.4981 47.8999 52.1175 47.9 52.74C47.9002 53.5893 47.7306 54.4301 47.4012 55.2128C47.0717 55.9956 46.5891 56.7046 45.9816 57.2981C45.3741 57.8917 44.654 58.3577 43.8638 58.6689C43.0736 58.98 42.2291 59.13 41.38 59.11C39.6744 59.0245 38.0697 58.2762 36.9078 57.0246C35.7459 55.7731 35.1188 54.1172 35.16 52.41C35.1822 51.905 35.2662 51.4046 35.41 50.92C35.4382 50.8303 35.4449 50.7353 35.4297 50.6425C35.4144 50.5498 35.3775 50.4619 35.3221 50.386C35.2666 50.3101 35.1941 50.2483 35.1104 50.2056C35.0266 50.1628 34.934 50.1404 34.84 50.14H27.23C26.4344 50.14 25.6713 49.8239 25.1087 49.2613C24.5461 48.6987 24.23 47.9357 24.23 47.14V18.27C24.23 17.4744 24.5461 16.7113 25.1087 16.1487C25.6713 15.5861 26.4344 15.27 27.23 15.27H56.09C56.8857 15.27 57.6487 15.5861 58.2113 16.1487C58.7739 16.7113 59.09 17.4744 59.09 18.27V26.12C59.0909 26.2064 59.0706 26.2918 59.0309 26.3686C58.9912 26.4453 58.9333 26.5113 58.8623 26.5606C58.7914 26.6099 58.7094 26.6411 58.6236 26.6514C58.5377 26.6618 58.4507 26.651 58.37 26.62C57.4559 26.2852 56.4772 26.1646 55.5092 26.2677C54.5412 26.3707 53.6098 26.6946 52.7867 27.2143C51.9636 27.7341 51.2708 28.4358 50.7616 29.2655C50.2525 30.0953 49.9406 31.0308 49.85 32Z" fill="#1CA9FF"/>
<g opacity="0.63">
<path opacity="0.63" d="M47.62 17.31C46.6154 16.2977 45.3359 15.6023 43.94 15.31H39.76V15.82C39.76 15.9791 39.8232 16.1317 39.9357 16.2443C40.0483 16.3568 40.2009 16.42 40.36 16.42C40.4129 16.4298 40.4671 16.4298 40.52 16.42C41.113 16.2388 41.7299 16.1478 42.35 16.15C43.2006 16.1498 44.0427 16.3196 44.8267 16.6496C45.6107 16.9796 46.3208 17.463 46.9152 18.0714C47.5097 18.6798 47.9764 19.4009 48.2881 20.1924C48.5998 20.9838 48.75 21.8296 48.73 22.68C48.6422 24.3365 47.932 25.8986 46.7416 27.0538C45.5512 28.209 43.9684 28.872 42.31 28.91H42C41.4977 28.8857 41.0005 28.7983 40.52 28.65H40.34C40.1809 28.65 40.0283 28.7132 39.9157 28.8257C39.8032 28.9383 39.74 29.0909 39.74 29.25V36.86C39.74 37.6556 39.4239 38.4187 38.8613 38.9813C38.2987 39.5439 37.5357 39.86 36.74 39.86H24.23V40.86H36.76C37.8209 40.86 38.8383 40.4386 39.5884 39.6884C40.3386 38.9383 40.76 37.9209 40.76 36.86V29.76C41.1579 29.8485 41.5628 29.902 41.97 29.92H42.31C44.2271 29.8724 46.0558 29.1037 47.4312 27.7673C48.8065 26.4308 49.6274 24.625 49.73 22.71C49.7652 21.7136 49.5961 20.7205 49.2332 19.7919C48.8704 18.8632 48.3214 18.0186 47.62 17.31Z" fill="#3E33C9"/>
</g>
<path d="M48.73 22.62C48.7159 23.604 48.4737 24.5713 48.0225 25.4458C47.5712 26.3203 46.9231 27.0781 46.1293 27.6597C45.3354 28.2413 44.4175 28.6307 43.4476 28.7973C42.4777 28.9639 41.4824 28.9033 40.54 28.62C40.4503 28.5918 40.3553 28.5851 40.2625 28.6003C40.1698 28.6156 40.0819 28.6525 40.006 28.7079C39.9301 28.7634 39.8683 28.8359 39.8256 28.9197C39.7828 29.0034 39.7604 29.096 39.76 29.19V36.8C39.76 37.5956 39.4439 38.3587 38.8813 38.9213C38.3187 39.4839 37.5557 39.8 36.76 39.8H7.91C7.11435 39.8 6.35129 39.4839 5.78868 38.9213C5.22607 38.3587 4.91 37.5956 4.91 36.8V7.91C4.91 7.11435 5.22607 6.35129 5.78868 5.78868C6.35129 5.22607 7.11435 4.91 7.91 4.91H15.75C15.8352 4.90976 15.9192 4.93007 15.9949 4.96921C16.0706 5.00835 16.1358 5.06516 16.1848 5.13483C16.2339 5.20451 16.2654 5.28498 16.2768 5.36944C16.2881 5.4539 16.2789 5.53985 16.25 5.62C15.8095 6.80643 15.7226 8.09519 16 9.33C16.3135 10.612 17.0182 11.7648 18.0162 12.6284C19.0142 13.4921 20.2562 14.0238 21.57 14.15C22.3967 14.2473 23.2344 14.1798 24.0349 13.9515C24.8353 13.7231 25.5826 13.3384 26.2335 12.8195C26.8843 12.3007 27.426 11.658 27.827 10.9286C28.2281 10.1992 28.4806 9.39756 28.57 8.57C28.6877 7.5736 28.5712 6.5635 28.23 5.62C28.2011 5.53985 28.1919 5.4539 28.2032 5.36944C28.2146 5.28498 28.2461 5.20451 28.2952 5.13483C28.3442 5.06516 28.4094 5.00835 28.4851 4.96921C28.5608 4.93007 28.6448 4.90976 28.73 4.91H36.73C37.5257 4.91 38.2887 5.22607 38.8513 5.78868C39.4139 6.35129 39.73 7.11435 39.73 7.91V15.78C39.7297 15.8726 39.7509 15.964 39.7918 16.047C39.8328 16.1301 39.8924 16.2025 39.966 16.2587C40.0396 16.3149 40.1252 16.3532 40.2161 16.3708C40.307 16.3884 40.4008 16.3847 40.49 16.36C41.0846 16.187 41.7008 16.0995 42.32 16.1C43.1723 16.0958 44.0167 16.2624 44.8036 16.5899C45.5904 16.9175 46.3036 17.3994 46.9011 18.0071C47.4986 18.6149 47.9683 19.3362 48.2824 20.1285C48.5965 20.9207 48.7487 21.7679 48.73 22.62Z" fill="#5D53DB"/>
<path d="M20 27.77C19.8498 27.7693 19.7017 27.7348 19.5666 27.669C19.4316 27.6032 19.3131 27.5078 19.22 27.39L16.06 23.39C15.9649 23.2893 15.8918 23.17 15.8453 23.0395C15.7988 22.9091 15.7799 22.7704 15.7897 22.6323C15.7996 22.4942 15.8381 22.3596 15.9026 22.2371C15.9672 22.1147 16.0566 22.0069 16.165 21.9207C16.2734 21.8346 16.3985 21.7719 16.5324 21.7366C16.6663 21.7013 16.806 21.6942 16.9428 21.7158C17.0796 21.7373 17.2104 21.787 17.327 21.8618C17.4436 21.9365 17.5433 22.0347 17.62 22.15L20.17 25.34L29.84 17.86C29.9437 17.7792 30.0624 17.7197 30.1891 17.6848C30.3159 17.6499 30.4483 17.6403 30.5787 17.6565C30.7092 17.6728 30.8352 17.7145 30.9495 17.7795C31.0638 17.8444 31.1642 17.9313 31.245 18.035C31.3258 18.1387 31.3853 18.2574 31.4202 18.3841C31.4551 18.5109 31.4647 18.6433 31.4485 18.7737C31.4322 18.9042 31.3904 19.0302 31.3255 19.1445C31.2606 19.2588 31.1737 19.3592 31.07 19.44L20.62 27.56C20.4427 27.6976 20.2244 27.7715 20 27.77Z" fill="#FF8E66"/>
<path d="M20 28.15C19.7926 28.1494 19.588 28.1024 19.4011 28.0124C19.2142 27.9224 19.0498 27.7918 18.92 27.63L15.76 23.63C15.5458 23.3422 15.4511 22.9827 15.4959 22.6267C15.5406 22.2707 15.7212 21.9459 16 21.72C16.2822 21.4955 16.6415 21.3913 17 21.43C17.1801 21.4474 17.3547 21.5017 17.513 21.5894C17.6713 21.6771 17.8098 21.7965 17.92 21.94L20.24 24.85L29.62 17.59C29.9102 17.3807 30.2702 17.2923 30.6243 17.3434C30.9784 17.3944 31.2988 17.581 31.518 17.8637C31.7371 18.1464 31.838 18.5032 31.7992 18.8589C31.7604 19.2145 31.585 19.5412 31.31 19.77L20.85 27.86C20.6085 28.0516 20.3083 28.154 20 28.15ZM16.84 22.15C16.7256 22.1536 16.6142 22.1883 16.518 22.2504C16.4218 22.3125 16.3443 22.3996 16.294 22.5025C16.2436 22.6053 16.2222 22.7199 16.232 22.834C16.2419 22.9481 16.2827 23.0574 16.35 23.15L19.51 27.15C19.6138 27.2762 19.7625 27.3572 19.9248 27.3759C20.0871 27.3945 20.2503 27.3494 20.38 27.25L30.84 19.17C30.9057 19.1194 30.9607 19.0564 31.002 18.9846C31.0434 18.9128 31.0701 18.8335 31.0808 18.7513C31.0915 18.6691 31.0859 18.5857 31.0643 18.5056C31.0427 18.4256 31.0056 18.3507 30.955 18.285C30.9045 18.2193 30.8415 18.1643 30.7696 18.123C30.6978 18.0816 30.6185 18.0549 30.5363 18.0442C30.4541 18.0335 30.3707 18.0391 30.2907 18.0607C30.2106 18.0823 30.1357 18.1194 30.07 18.17L20.07 25.88L17.3 22.39C17.1937 22.2635 17.0439 22.1814 16.88 22.16L16.84 22.15Z" fill="#FF8E66"/>
</svg>
