<svg width="18" height="14" viewBox="0 0 18 14" fill="none" xmlns="http://www.w3.org/2000/svg">
<path d="M14.1611 6.6271C15.2654 6.47194 16.1157 5.5251 16.1181 4.37798C16.1181 3.24748 15.2939 2.31015 14.2133 2.13281" stroke="#6C5ECF" stroke-linecap="round" stroke-linejoin="round"/>
<path d="M15.6184 9.28125C16.688 9.44117 17.4345 9.81562 17.4345 10.5875C17.4345 11.1187 17.083 11.4639 16.5146 11.6808" stroke="#6C5ECF" stroke-linecap="round" stroke-linejoin="round"/>
<path fill-rule="evenodd" clip-rule="evenodd" d="M9.41029 9.60938C6.86587 9.60938 4.69275 9.99492 4.69275 11.5347C4.69275 13.0737 6.85242 13.4703 9.41029 13.4703C11.9547 13.4703 14.127 13.0888 14.127 11.5482C14.127 10.0076 11.9682 9.60938 9.41029 9.60938Z" stroke="#6C5ECF" stroke-linecap="round" stroke-linejoin="round"/>
<path fill-rule="evenodd" clip-rule="evenodd" d="M9.41024 7.41198C11.0799 7.41198 12.4336 6.05903 12.4336 4.38861C12.4336 2.71898 11.0799 1.36523 9.41024 1.36523C7.74061 1.36523 6.38686 2.71898 6.38686 4.38861C6.38053 6.05269 7.72399 7.40644 9.38807 7.41198H9.41024Z" stroke="#6C5ECF" stroke-linecap="round" stroke-linejoin="round"/>
<path d="M4.65878 6.6271C3.55362 6.47194 2.70416 5.5251 2.70178 4.37798C2.70178 3.24748 3.52591 2.31015 4.60653 2.13281" stroke="#6C5ECF" stroke-linecap="round" stroke-linejoin="round"/>
<path d="M3.2014 9.28125C2.13186 9.44117 1.38531 9.81562 1.38531 10.5875C1.38531 11.1187 1.73681 11.4639 2.30523 11.6808" stroke="#6C5ECF" stroke-linecap="round" stroke-linejoin="round"/>
</svg>
