<?xml version="1.0" encoding="UTF-8"?>
<svg width="23px" height="18px" viewBox="0 0 23 18" version="1.1" xmlns="http://www.w3.org/2000/svg" xmlns:xlink="http://www.w3.org/1999/xlink">
    <title>3user</title>
    <g id="Page-1" stroke="none" stroke-width="1" fill="none" fill-rule="evenodd">
        <g id="3user" transform="translate(1.000000, 1.499756)" stroke="#6C5ECF" stroke-width="1.5">
            <path d="M16.1377,6.6467 C17.5327,6.4507 18.6067,5.25473 18.6097,3.80573 C18.6097,2.37773 17.5687,1.19373 16.2037,0.96973" id="Path"></path>
            <path d="M17.9785,10.0005 C19.3295,10.2025 20.2725,10.6755 20.2725,11.6505 C20.2725,12.3215 19.8285,12.7575 19.1105,13.0315" id="Path"></path>
            <path d="M10.1367,10.4138 C6.92273,10.4138 4.17773,10.9008 4.17773,12.8458 C4.17773,14.7898 6.90573,15.2908 10.1367,15.2908 C13.3507,15.2908 16.0947,14.8088 16.0947,12.8628 C16.0947,10.9168 13.3677,10.4138 10.1367,10.4138 Z" id="Path"></path>
            <path d="M10.1369,7.638 C12.2459,7.638 13.9559,5.929 13.9559,3.819 C13.9559,1.71 12.2459,0 10.1369,0 C8.0279,0 6.31784386,1.71 6.31784386,3.819 C6.3099,5.921 8.0069,7.631 10.1089,7.638 L10.1369,7.638 Z" id="Path"></path>
            <path d="M4.13484,6.6467 C2.73884,6.4507 1.66584,5.25473 1.66284,3.80573 C1.66284,2.37773 2.70384,1.19373 4.06884,0.96973" id="Path"></path>
            <path d="M2.294,10.0005 C0.943,10.2025 0,10.6755 0,11.6505 C0,12.3215 0.444,12.7575 1.162,13.0315" id="Path"></path>
        </g>
    </g>
</svg>