<svg width="64" height="64" viewBox="0 0 64 64" fill="none" xmlns="http://www.w3.org/2000/svg">
<g filter="url(#filter0_dd_851_9956)">
<path d="M0 32C0 14.3269 14.3269 0 32 0C49.6731 0 64 14.3269 64 32C64 49.6731 49.6731 64 32 64C14.3269 64 0 49.6731 0 32Z" fill="#6C5ECF"/>
<mask id="mask0_851_9956" style="mask-type:alpha" maskUnits="userSpaceOnUse" x="19" y="19" width="26" height="26">
<path fill-rule="evenodd" clip-rule="evenodd" d="M32 25.7393C32.4322 25.7393 32.7826 26.0896 32.7826 26.5219V31.2175H37.4783C37.9105 31.2175 38.2609 31.5679 38.2609 32.0001C38.2609 32.4324 37.9105 32.7827 37.4783 32.7827H32.7826V37.4784C32.7826 37.9106 32.4322 38.261 32 38.261C31.5678 38.261 31.2174 37.9106 31.2174 37.4784V32.7827H26.5217C26.0895 32.7827 25.7391 32.4324 25.7391 32.0001C25.7391 31.5679 26.0895 31.2175 26.5217 31.2175H31.2174V26.5219C31.2174 26.0896 31.5678 25.7393 32 25.7393Z" fill="black"/>
</mask>
<g mask="url(#mask0_851_9956)">
<rect x="19.4783" y="19.478" width="25.0435" height="25.0435" fill="white"/>
</g>
</g>
<defs>
<filter id="filter0_dd_851_9956" x="-18" y="-14" width="100" height="100" filterUnits="userSpaceOnUse" color-interpolation-filters="sRGB">
<feFlood flood-opacity="0" result="BackgroundImageFix"/>
<feColorMatrix in="SourceAlpha" type="matrix" values="0 0 0 0 0 0 0 0 0 0 0 0 0 0 0 0 0 0 127 0" result="hardAlpha"/>
<feMorphology radius="2" operator="erode" in="SourceAlpha" result="effect1_dropShadow_851_9956"/>
<feOffset dy="4"/>
<feGaussianBlur stdDeviation="10"/>
<feColorMatrix type="matrix" values="0 0 0 0 0.196078 0 0 0 0 0.196078 0 0 0 0 0.278431 0 0 0 0.08 0"/>
<feBlend mode="normal" in2="BackgroundImageFix" result="effect1_dropShadow_851_9956"/>
<feColorMatrix in="SourceAlpha" type="matrix" values="0 0 0 0 0 0 0 0 0 0 0 0 0 0 0 0 0 0 127 0" result="hardAlpha"/>
<feOffset/>
<feGaussianBlur stdDeviation="0.5"/>
<feColorMatrix type="matrix" values="0 0 0 0 0.0470588 0 0 0 0 0.101961 0 0 0 0 0.294118 0 0 0 0.1 0"/>
<feBlend mode="normal" in2="effect1_dropShadow_851_9956" result="effect2_dropShadow_851_9956"/>
<feBlend mode="normal" in="SourceGraphic" in2="effect2_dropShadow_851_9956" result="shape"/>
</filter>
</defs>
</svg>
