<svg width="20" height="20" viewBox="0 0 20 20" fill="none" xmlns="http://www.w3.org/2000/svg">
<rect width="20" height="20" rx="4" fill="#EBF2FA"/>
<path d="M9.246 13.0873C9.20733 13.0496 9.042 12.9074 8.906 12.7749C8.05067 11.9981 6.65067 9.97183 6.22333 8.91127C6.15467 8.7502 6.00933 8.34299 6 8.12543C6 7.91695 6.048 7.71822 6.14533 7.52858C6.28133 7.29217 6.49533 7.10253 6.748 6.99862C6.92333 6.93173 7.448 6.82781 7.45733 6.82781C8.03133 6.7239 8.964 6.66675 9.99467 6.66675C10.9767 6.66675 11.8713 6.7239 12.454 6.80898C12.4633 6.81872 13.1153 6.92263 13.3387 7.03629C13.7467 7.24476 14 7.65197 14 8.08776V8.12543C13.99 8.40924 13.7367 9.00609 13.7273 9.00609C13.2993 10.0095 11.968 11.989 11.0833 12.7846C11.0833 12.7846 10.856 13.0087 10.714 13.1061C10.51 13.2581 10.2573 13.3334 10.0047 13.3334C9.72267 13.3334 9.46 13.2483 9.246 13.0873Z" fill="#6C5ECF"/>
</svg>
