<svg width="21" height="20" viewBox="0 0 21 20" fill="none" xmlns="http://www.w3.org/2000/svg">
<path fill-rule="evenodd" clip-rule="evenodd" d="M3.88428 2C2.96698 2 2.74263 2.04332 2.51638 2.16433C2.37603 2.23939 2.27784 2.33758 2.20278 2.47793C2.08178 2.70418 2.03845 2.92853 2.03845 3.84583V16.1542C2.03845 17.0715 2.08178 17.2958 2.20278 17.5221C2.27784 17.6624 2.37603 17.7606 2.51638 17.8357C2.74263 17.9567 2.96698 18 3.88428 18H16.1926C17.1099 18 17.3343 17.9567 17.5605 17.8357C17.7009 17.7606 17.7991 17.6624 17.8741 17.5221C17.9951 17.2958 18.0385 17.0715 18.0385 16.1542V3.84583C18.0385 2.92853 17.9951 2.70418 17.8741 2.47793C17.7991 2.33758 17.7009 2.23939 17.5605 2.16433C17.3343 2.04332 17.1099 2 16.1926 2H3.88428ZM3.88428 0H16.1926C17.5299 0 18.0148 0.139238 18.5037 0.400699C18.9926 0.66216 19.3763 1.04584 19.6378 1.53473C19.8992 2.02362 20.0385 2.50855 20.0385 3.84583V16.1542C20.0385 17.4915 19.8992 17.9764 19.6378 18.4653C19.3763 18.9542 18.9926 19.3378 18.5037 19.5993C18.0148 19.8608 17.5299 20 16.1926 20H3.88428C2.547 20 2.06207 19.8608 1.57318 19.5993C1.08429 19.3378 0.700612 18.9542 0.439151 18.4653C0.177691 17.9764 0.0384521 17.4915 0.0384521 16.1542V3.84583C0.0384521 2.50855 0.177691 2.02362 0.439151 1.53473C0.700612 1.04584 1.08429 0.66216 1.57318 0.400699C2.06207 0.139238 2.547 0 3.88428 0Z" fill="#A6B7D4"/>
</svg>
