<svg width="22" height="20" viewBox="0 0 22 20" fill="none" xmlns="http://www.w3.org/2000/svg">
<path fill-rule="evenodd" clip-rule="evenodd" d="M0.497024 1.63803C0.170044 2.27976 0.170044 3.11984 0.170044 4.8V15.2C0.170044 16.8802 0.170044 17.7202 0.497024 18.362C0.784644 18.9265 1.24359 19.3854 1.80807 19.673C2.44981 20 3.28989 20 4.97005 20H16.67C18.3502 20 19.1903 20 19.832 19.673C20.3965 19.3854 20.8554 18.9265 21.1431 18.362C21.47 17.7202 21.47 16.8802 21.47 15.2V4.8C21.47 3.11984 21.47 2.27976 21.1431 1.63803C20.8554 1.07354 20.3965 0.614601 19.832 0.32698C19.1903 0 18.3502 0 16.67 0H4.97004C3.28989 0 2.44981 0 1.80807 0.32698C1.24359 0.614601 0.784644 1.07354 0.497024 1.63803ZM15.8559 6.79328C15.44 6.40276 14.7656 6.40276 14.3497 6.79328L8.7128 12.0862L6.78074 10.272C6.36483 9.88151 5.69051 9.88151 5.2746 10.272C4.85869 10.6626 4.85869 11.2957 5.2746 11.6862L7.95973 14.2075C8.37564 14.598 9.04996 14.598 9.46587 14.2075L15.8559 8.2075C16.2718 7.81697 16.2718 7.18381 15.8559 6.79328Z" fill="white"/>
</svg>
