<?xml version="1.0" encoding="UTF-8"?>
<svg width="21px" height="22px" viewBox="0 0 21 22" version="1.1" xmlns="http://www.w3.org/2000/svg" xmlns:xlink="http://www.w3.org/1999/xlink">
    <title>dashboard</title>
    <g id="Page-1" stroke="none" stroke-width="1" fill="none" fill-rule="evenodd" stroke-linecap="round" stroke-linejoin="round">
        <g id="dashboard" transform="translate(0.750000, 1.249759)" stroke="#6C5ECF" stroke-width="1.5">
            <path d="M6.65722,18.7713975 L6.65722,15.7046975 C6.6572,14.9245975 7.29312,14.2907975 8.081,14.2855975 L10.9671,14.2855975 C11.7587,14.2855975 12.4005,14.9208975 12.4005,15.7046975 L12.4005,15.7046975 L12.4005,18.7808975 C12.4003,19.4431975 12.9343,19.9844975 13.603,20 L15.5271,20 C17.4451,20 19,18.4606975 19,16.5617975 L19,16.5617975 L19,7.8378375 C18.9898,7.0908275 18.6355,6.3893475 18.038,5.9330275 L11.4577,0.6852975 C10.3049,-0.2284325 8.6662,-0.2284325 7.5134,0.6852975 L0.96203,5.9425575 C0.36226,6.3970175 0.00739,7.0996675 0,7.8473575 L0,16.5617975 C0,18.4606975 1.55488,20 3.47291,20 L5.39696,20 C6.08235,20 6.63797,19.4498975 6.63797,18.7713975 L6.63797,18.7713975" id="Path"></path>
        </g>
    </g>
</svg>