<svg width="8" height="8" viewBox="0 0 8 8" fill="none" xmlns="http://www.w3.org/2000/svg">
<path d="M3.30425 5.91393H0.678955" stroke="#6C5ECF" stroke-linecap="round" stroke-linejoin="round"/>
<path d="M4.47534 1.87536H7.10064" stroke="#6C5ECF" stroke-linecap="round" stroke-linejoin="round"/>
<path fill-rule="evenodd" clip-rule="evenodd" d="M2.63603 1.85261C2.63603 1.31275 2.19513 0.875 1.65139 0.875C1.10765 0.875 0.666748 1.31275 0.666748 1.85261C0.666748 2.39246 1.10765 2.83021 1.65139 2.83021C2.19513 2.83021 2.63603 2.39246 2.63603 1.85261Z" stroke="#6C5ECF" stroke-linecap="round" stroke-linejoin="round"/>
<path fill-rule="evenodd" clip-rule="evenodd" d="M7.33354 5.89753C7.33354 5.35767 6.89298 4.91992 6.34924 4.91992C5.80516 4.91992 5.36426 5.35767 5.36426 5.89753C5.36426 6.43738 5.80516 6.87513 6.34924 6.87513C6.89298 6.87513 7.33354 6.43738 7.33354 5.89753Z" stroke="#6C5ECF" stroke-linecap="round" stroke-linejoin="round"/>
</svg>
