<?xml version="1.0" encoding="UTF-8"?>
<svg width="40px" height="32px" viewBox="0 0 40 32" version="1.1" xmlns="http://www.w3.org/2000/svg" xmlns:xlink="http://www.w3.org/1999/xlink">
    <title>folder-2</title>
    <defs>
        <linearGradient x1="100%" y1="18%" x2="21.95125%" y2="96.0488%" id="linearGradient-1">
            <stop stop-color="#6C5ECF" offset="0%"></stop>
            <stop stop-color="#503FC8" offset="100%"></stop>
        </linearGradient>
    </defs>
    <g id="Page-1" stroke="none" stroke-width="1" fill="none" fill-rule="evenodd">
        <g id="folder-2">
            <path d="M36,4 L20,4 L16,0 L4,0 C1.8,0 0,1.8 0,4 L0,28 C0,30.2 1.8,32 4,32 L36,32 C38.2,32 40,30.2 40,28 L40,8 C40,5.8 38.2,4 36,4 Z" id="Path" fill="url(#linearGradient-1)" fill-rule="nonzero"></path>
            <path d="M14.6593,15.8218 C14.6593,17.8046 13.0367,19.3936 11.012,19.3936 C8.988,19.3936 7.3647,17.8046 7.3647,15.8218 C7.3647,13.839 8.988,12.25 11.012,12.25 C13.0367,12.25 14.6593,13.839 14.6593,15.8218 Z M5.5,23.438 C5.5,21.6025 8.0391,21.1433 11.012,21.1433 C14.001,21.1433 16.524,21.6183 16.524,23.4553 C16.524,25.2908 13.9849,25.75 11.012,25.75 C8.023,25.75 5.5,25.2749 5.5,23.438 Z M16.13,15.8866 C16.13,16.8963 15.8204,17.8385 15.2773,18.6211 C15.2208,18.7016 15.2707,18.8101 15.369,18.8274 C15.5055,18.8497 15.6457,18.8633 15.7888,18.8662 C17.2125,18.9028 18.4901,18.0052 18.8431,16.6534 C19.3663,14.6476 17.8311,12.8466 15.8754,12.8466 C15.6633,12.8466 15.46,12.8681 15.2619,12.9077 C15.2347,12.9134 15.2054,12.9263 15.1907,12.9493 C15.1716,12.9788 15.1856,13.0169 15.2046,13.0421 C15.7925,13.8491 16.13,14.8316 16.13,15.8866 Z M18.4879,20.2767 C19.4449,20.46 20.0738,20.833 20.3343,21.377 C20.5552,21.8226 20.5552,22.34 20.3343,22.7856 C19.9358,23.6279 18.6501,23.8988 18.1504,23.9685 C18.0469,23.9829 17.964,23.8967 17.975,23.7946 C18.2303,21.4604 16.1998,20.3536 15.6743,20.0992 C15.6523,20.087 15.6472,20.0697 15.6494,20.0582 C15.6508,20.0511 15.6604,20.0396 15.6773,20.0374 C16.814,20.0158 18.0366,20.1689 18.4879,20.2767 Z" id="Shape" fill="#FFFFFF"></path>
        </g>
    </g>
</svg>