<svg width="18" height="18" viewBox="0 0 18 18" fill="none" xmlns="http://www.w3.org/2000/svg">
<path fill-rule="evenodd" clip-rule="evenodd" d="M6.82845 11.1718C6.63319 10.9766 6.3166 10.9766 6.12134 11.1718L2.02515 15.268L2.02515 12.5003C2.02515 12.2241 1.80129 12.0003 1.52515 12.0003C1.249 12.0003 1.02515 12.2241 1.02515 12.5003L1.02515 16.4751C1.02515 16.7513 1.249 16.9751 1.52515 16.9751L5.49998 16.9751C5.77612 16.9751 5.99998 16.7513 5.99998 16.4751C5.99998 16.199 5.77612 15.9751 5.49998 15.9751L2.73225 15.9751L6.82845 11.8789C7.02371 11.6837 7.02371 11.3671 6.82845 11.1718Z" fill="#1E265E" stroke="#1E265E" stroke-width="0.5" stroke-linecap="round" stroke-linejoin="round"/>
<path fill-rule="evenodd" clip-rule="evenodd" d="M11.1716 11.1718C11.3668 10.9766 11.6834 10.9766 11.8787 11.1718L15.9749 15.268L15.9749 12.5003C15.9749 12.2241 16.1987 12.0003 16.4749 12.0003C16.751 12.0003 16.9749 12.2241 16.9749 12.5003L16.9749 16.4751C16.9749 16.7513 16.751 16.9751 16.4749 16.9751L12.5 16.9751C12.2239 16.9751 12 16.7513 12 16.4751C12 16.199 12.2239 15.9751 12.5 15.9751L15.2677 15.9751L11.1716 11.8789C10.9763 11.6837 10.9763 11.3671 11.1716 11.1718Z" fill="#1E265E" stroke="#1E265E" stroke-width="0.5" stroke-linecap="round" stroke-linejoin="round"/>
<path fill-rule="evenodd" clip-rule="evenodd" d="M11.1716 6.82816C11.3668 7.02342 11.6834 7.02342 11.8787 6.82816L15.9749 2.73197L15.9749 5.49974C15.9749 5.77588 16.1987 5.99974 16.4749 5.99974C16.751 5.99974 16.9749 5.77588 16.9749 5.49974L16.9749 1.52486C16.9749 1.24872 16.751 1.02486 16.4749 1.02486L12.5 1.02486C12.2239 1.02486 12 1.24872 12 1.52486C12 1.80101 12.2239 2.02487 12.5 2.02487L15.2677 2.02486L11.1716 6.12106C10.9763 6.31632 10.9763 6.6329 11.1716 6.82816Z" fill="#1E265E" stroke="#1E265E" stroke-width="0.5" stroke-linecap="round" stroke-linejoin="round"/>
<path fill-rule="evenodd" clip-rule="evenodd" d="M6.82845 6.82816C6.63319 7.02342 6.3166 7.02342 6.12134 6.82816L2.02515 2.73197L2.02515 5.49974C2.02515 5.77588 1.80129 5.99974 1.52515 5.99974C1.249 5.99974 1.02515 5.77588 1.02515 5.49974L1.02515 1.52486C1.02515 1.24872 1.249 1.02486 1.52515 1.02486L5.49998 1.02486C5.77612 1.02486 5.99998 1.24872 5.99998 1.52486C5.99998 1.80101 5.77612 2.02487 5.49998 2.02487L2.73225 2.02486L6.82845 6.12106C7.02371 6.31632 7.02371 6.6329 6.82845 6.82816Z" fill="#1E265E" stroke="#1E265E" stroke-width="0.5" stroke-linecap="round" stroke-linejoin="round"/>
</svg>
