<svg width="108" height="111" viewBox="0 0 108 111" fill="none" xmlns="http://www.w3.org/2000/svg">
<path d="M81.7058 10.6426C82.9485 10.6426 83.9558 11.6653 83.9558 12.927L83.9558 26.6335C83.9558 27.8951 82.9485 28.9179 81.7058 28.9179L25.4558 28.9179C24.2132 28.9179 23.2058 27.8951 23.2058 26.6335L23.2058 12.927C23.2058 11.6653 24.2132 10.6426 25.4558 10.6426L81.7058 10.6426Z" fill="#348304"/>
<path fill-rule="evenodd" clip-rule="evenodd" d="M86.2061 12.9282L86.2061 26.6347C86.2061 29.158 84.1913 31.2035 81.7061 31.2035L25.456 31.2035C22.9708 31.2035 20.956 29.158 20.956 26.6347L20.956 12.9282C20.956 10.4049 22.9708 8.35937 25.456 8.35937L81.7061 8.35937C84.1913 8.35937 86.2061 10.4049 86.2061 12.9282ZM83.9561 12.9282C83.9561 11.6666 82.9487 10.6438 81.7061 10.6438L25.456 10.6438C24.2134 10.6438 23.206 11.6666 23.206 12.9282L23.206 26.6347C23.206 27.8963 24.2134 28.9191 25.456 28.9191L81.7061 28.9191C82.9487 28.9191 83.9561 27.8963 83.9561 26.6347L83.9561 12.9282Z" fill="#245E01"/>
<path fill-rule="evenodd" clip-rule="evenodd" d="M25.2502 11.7848C25.2502 11.154 25.7539 10.6426 26.3752 10.6426H81.4245C82.0458 10.6426 82.5495 11.154 82.5495 11.7848C82.5495 12.4156 82.0458 12.927 81.4245 12.927H26.3752C25.7539 12.927 25.2502 12.4156 25.2502 11.7848Z" fill="#3B9703"/>
<path fill-rule="evenodd" clip-rule="evenodd" d="M24.823 18.4274C24.823 17.7965 25.3267 17.2852 25.948 17.2852H80.9973C81.6186 17.2852 82.1223 17.7965 82.1223 18.4274C82.1223 19.0582 81.6186 19.5696 80.9973 19.5696H25.948C25.3267 19.5696 24.823 19.0582 24.823 18.4274Z" fill="#296A02"/>
<path fill-rule="evenodd" clip-rule="evenodd" d="M24.823 14.2145C24.823 13.5836 25.3267 13.0723 25.948 13.0723H80.9973C81.6186 13.0723 82.1223 13.5836 82.1223 14.2145C82.1223 14.8453 81.6186 15.3567 80.9973 15.3567H25.948C25.3267 15.3567 24.823 14.8453 24.823 14.2145Z" fill="#296A02"/>
<path fill-rule="evenodd" clip-rule="evenodd" d="M24.823 22.5641C24.823 21.9333 25.3267 21.4219 25.948 21.4219H80.9973C81.6186 21.4219 82.1223 21.9333 82.1223 22.5641C82.1223 23.1949 81.6186 23.7063 80.9973 23.7063H25.948C25.3267 23.7063 24.823 23.1949 24.823 22.5641Z" fill="#296A02"/>
<path fill-rule="evenodd" clip-rule="evenodd" d="M25.2502 26.3512C25.2502 25.7204 25.7539 25.209 26.3752 25.209H81.4245C82.0458 25.209 82.5495 25.7204 82.5495 26.3512C82.5495 26.982 82.0458 27.4934 81.4245 27.4934H26.3752C25.7539 27.4934 25.2502 26.982 25.2502 26.3512Z" fill="#296A02"/>
<path d="M26.6938 11.545C25.8151 10.6529 24.3905 10.6529 23.5118 11.545L13.9659 21.237C13.0872 22.1291 13.0872 23.5755 13.9659 24.4676L52.3426 63.4314C53.2213 64.3235 54.6459 64.3235 55.5246 63.4314L65.0706 53.7394C65.9492 52.8473 65.9492 51.4009 65.0706 50.5088L26.6938 11.545Z" fill="#47B405"/>
<path fill-rule="evenodd" clip-rule="evenodd" d="M21.9208 9.92987L12.3749 19.6218C10.6175 21.4061 10.6175 24.2989 12.3749 26.0831L50.7516 65.0469C52.509 66.8311 55.3583 66.8311 57.1156 65.0469L66.6616 55.3549C68.4189 53.5707 68.4189 50.6779 66.6616 48.8936L28.2848 9.92987C26.5274 8.14563 23.6782 8.14563 21.9208 9.92987ZM23.5118 11.5452C24.3905 10.6531 25.8151 10.6531 26.6938 11.5452L65.0706 50.5089C65.9492 51.4011 65.9492 52.8475 65.0706 53.7396L55.5246 63.4315C54.6459 64.3237 53.2213 64.3237 52.3426 63.4315L13.9658 24.4678C13.0872 23.5757 13.0872 22.1293 13.9659 21.2371L23.5118 11.5452Z" fill="#245E01"/>
<path d="M80.4679 11.5888C81.3429 10.6758 82.7843 10.6657 83.6716 11.5665L93.2172 21.2581C94.0874 22.1416 94.097 23.571 93.2389 24.4665L55.9434 63.3859C55.0685 64.299 53.627 64.309 52.7398 63.4082L43.1941 53.7166C42.324 52.8331 42.3143 51.4038 43.1724 50.5082L80.4679 11.5888Z" fill="#47B405"/>
<path fill-rule="evenodd" clip-rule="evenodd" d="M85.2626 9.95331L94.8082 19.645C96.5485 21.4119 96.5678 24.2706 94.8515 26.0616L57.5561 64.9811C55.8062 66.8072 52.9232 66.8273 51.1488 65.0257L41.6031 55.334C39.8628 53.5671 39.8435 50.7084 41.5598 48.9174L78.8552 9.99794C80.6052 8.17182 83.4881 8.15174 85.2626 9.95331ZM83.6716 11.5686C82.7843 10.6678 81.3429 10.6779 80.4679 11.5909L43.1725 50.5104C42.3143 51.4059 42.324 52.8352 43.1941 53.7187L52.7398 63.4104C53.627 64.3111 55.0685 64.3011 55.9434 63.388L93.2389 24.4686C94.097 23.5731 94.0874 22.1438 93.2172 21.2603L83.6716 11.5686Z" fill="#245E01"/>
<path fill-rule="evenodd" clip-rule="evenodd" d="M82.2867 12.5477C82.7281 12.9917 82.7313 13.7149 82.294 14.163L59.3018 37.721C58.8645 38.1691 58.1522 38.1724 57.7108 37.7284C57.2695 37.2843 57.2662 36.5611 57.7036 36.1131L80.6958 12.555C81.1331 12.1069 81.8454 12.1036 82.2867 12.5477Z" fill="#64D91D"/>
<path fill-rule="evenodd" clip-rule="evenodd" d="M14.2541 22.1177C14.6934 21.6717 15.4057 21.6717 15.8451 22.1177L30.4701 36.9664C30.9094 37.4125 30.9094 38.1357 30.4701 38.5818C30.0307 39.0278 29.3184 39.0278 28.8791 38.5818L14.2541 23.7331C13.8147 23.287 13.8147 22.5638 14.2541 22.1177Z" fill="#64D91D"/>
<path d="M86.8625 19.0943C86.4121 19.5517 85.6906 19.5607 85.2511 19.1145C84.8117 18.6683 84.8206 17.9358 85.271 17.4785C85.7215 17.0211 86.4429 17.0121 86.8824 17.4583C87.3219 17.9045 87.313 18.637 86.8625 19.0943Z" fill="#3C9A03"/>
<path d="M83.4414 21.9228C82.8811 22.4917 81.9837 22.5029 81.437 21.9479C80.8903 21.3929 80.9014 20.4818 81.4618 19.9129C82.0221 19.344 82.9195 19.3327 83.4661 19.8878C84.0128 20.4428 84.0017 21.3539 83.4414 21.9228Z" fill="#3C9A03"/>
<path d="M87.0865 22.8169C86.8064 23.1013 86.3577 23.1069 86.0844 22.8294C85.811 22.5519 85.8166 22.0964 86.0967 21.8119C86.3769 21.5275 86.8256 21.5218 87.0989 21.7994C87.3722 22.0769 87.3667 22.5324 87.0865 22.8169Z" fill="#3C9A03"/>
<path d="M78.9825 32.4653C78.7024 32.7498 78.2537 32.7554 77.9803 32.4779C77.707 32.2004 77.7126 31.7448 77.9927 31.4604C78.2729 31.1759 78.7216 31.1703 78.9949 31.4478C79.2682 31.7253 79.2627 32.1809 78.9825 32.4653Z" fill="#3C9A03"/>
<path d="M83.0509 25.9087C82.7707 26.1931 82.322 26.1987 82.0487 25.9212C81.7754 25.6437 81.7809 25.1882 82.0611 24.9037C82.3412 24.6193 82.7899 24.6136 83.0633 24.8912C83.3366 25.1687 83.3311 25.6242 83.0509 25.9087Z" fill="#3C9A03"/>
<path d="M78.9703 36.3989C78.6902 36.6833 78.2415 36.689 77.9681 36.4115C77.6948 36.134 77.7004 35.6784 77.9805 35.3939C78.2607 35.1095 78.7094 35.1039 78.9827 35.3814C79.256 35.6589 79.2505 36.1145 78.9703 36.3989Z" fill="#3C9A03"/>
<path d="M79.9972 25.0415C79.717 25.3259 79.2683 25.3316 78.995 25.054C78.7217 24.7765 78.7272 24.321 79.0074 24.0365C79.2875 23.7521 79.7362 23.7465 80.0096 24.024C80.2829 24.3015 80.2774 24.757 79.9972 25.0415Z" fill="#3C9A03"/>
<path d="M82.2797 33.1802C81.9995 33.4646 81.5508 33.4702 81.2775 33.1927C81.0041 32.9152 81.0097 32.4596 81.2898 32.1752C81.57 31.8907 82.0187 31.8851 82.292 32.1626C82.5654 32.4401 82.5598 32.8957 82.2797 33.1802Z" fill="#3C9A03"/>
<path d="M90.4835 21.0141C90.2033 21.2986 89.7547 21.3042 89.4813 21.0267C89.208 20.7492 89.2135 20.2936 89.4937 20.0092C89.7739 19.7247 90.2226 19.7191 90.4959 19.9966C90.7692 20.2741 90.7637 20.7297 90.4835 21.0141Z" fill="#3C9A03"/>
<path d="M86.7729 26.9815C86.3169 27.4445 85.5867 27.4536 85.1418 27.002C84.697 26.5503 84.706 25.8089 85.162 25.346C85.6179 24.8831 86.3482 24.8739 86.793 25.3256C87.2378 25.7772 87.2288 26.5186 86.7729 26.9815Z" fill="#3C9A03"/>
<path d="M91.1195 24.2042C90.6636 24.6671 89.9333 24.6763 89.4885 24.2246C89.0437 23.773 89.0527 23.0316 89.5087 22.5687C89.9646 22.1057 90.6948 22.0966 91.1397 22.5482C91.5845 22.9999 91.5755 23.7413 91.1195 24.2042Z" fill="#3C9A03"/>
<path d="M82.3141 29.9288C81.8582 30.3917 81.1279 30.4009 80.6831 29.9492C80.2383 29.4976 80.2473 28.7562 80.7032 28.2933C81.1592 27.8304 81.8894 27.8212 82.3342 28.2728C82.7791 28.7245 82.7701 29.4659 82.3141 29.9288Z" fill="#3C9A03"/>
<path d="M85.4755 30.4302C85.1953 30.7146 84.7466 30.7202 84.4733 30.4427C84.1999 30.1652 84.2055 29.7096 84.4856 29.4252C84.7658 29.1407 85.2145 29.1351 85.4878 29.4126C85.7612 29.6901 85.7556 30.1457 85.4755 30.4302Z" fill="#3C9A03"/>
<path d="M84.3748 70.4685C84.3748 87.5007 70.7754 101.308 53.9998 101.308C37.2241 101.308 23.6248 87.5007 23.6248 70.4685C23.6248 53.4363 37.2241 39.6289 53.9998 39.6289C70.7754 39.6289 84.3748 53.4363 84.3748 70.4685Z" fill="#FFBB0D"/>
<path fill-rule="evenodd" clip-rule="evenodd" d="M86.6245 70.4697C86.6245 88.7636 72.0178 103.594 53.9995 103.594C35.9812 103.594 21.3745 88.7636 21.3745 70.4697C21.3745 52.1758 35.9812 37.3457 53.9995 37.3457C72.0178 37.3457 86.6245 52.1758 86.6245 70.4697ZM53.9995 101.309C70.7752 101.309 84.3745 87.5019 84.3745 70.4697C84.3745 53.4375 70.7752 39.6301 53.9995 39.6301C37.2239 39.6301 23.6245 53.4375 23.6245 70.4697C23.6245 87.5019 37.2239 101.309 53.9995 101.309Z" fill="#E89B05"/>
<path fill-rule="evenodd" clip-rule="evenodd" d="M25.8745 71.6094C25.2532 71.6094 24.7495 71.098 24.7495 70.4672C24.7495 54.0658 37.8452 40.7698 53.9995 40.7698C54.6208 40.7698 55.1245 41.2812 55.1245 41.912C55.1245 42.5428 54.6208 43.0542 53.9995 43.0542C39.0878 43.0542 26.9995 55.3274 26.9995 70.4672C26.9995 71.098 26.4958 71.6094 25.8745 71.6094Z" fill="#E8AA0A"/>
<path fill-rule="evenodd" clip-rule="evenodd" d="M82.1248 69.3262C82.7461 69.3262 83.2498 69.8376 83.2498 70.4684C83.2498 86.8698 70.1541 100.166 53.9998 100.166C53.3784 100.166 52.8748 99.6544 52.8748 99.0236C52.8748 98.3927 53.3784 97.8813 53.9998 97.8813C68.9114 97.8813 80.9998 85.6081 80.9998 70.4684C80.9998 69.8376 81.5034 69.3262 82.1248 69.3262Z" fill="#E8AA0A"/>
<path d="M76.4998 70.4672C76.4998 83.0837 66.4262 93.3113 53.9998 93.3113C41.5733 93.3113 31.4998 83.0837 31.4998 70.4672C31.4998 57.8507 41.5733 47.623 53.9998 47.623C66.4262 47.623 76.4998 57.8507 76.4998 70.4672Z" fill="#FFDD28"/>
<path fill-rule="evenodd" clip-rule="evenodd" d="M78.7495 70.4684C78.7495 84.3465 67.6686 95.5969 53.9995 95.5969C40.3305 95.5969 29.2495 84.3465 29.2495 70.4684C29.2495 56.5903 40.3305 45.3398 53.9995 45.3398C67.6686 45.3398 78.7495 56.5903 78.7495 70.4684ZM53.9995 93.3125C66.4259 93.3125 76.4995 83.0849 76.4995 70.4684C76.4995 57.8519 66.4259 47.6243 53.9995 47.6243C41.5731 47.6243 31.4995 57.8519 31.4995 70.4684C31.4995 83.0849 41.5731 93.3125 53.9995 93.3125Z" fill="#E89B05"/>
<path fill-rule="evenodd" clip-rule="evenodd" d="M53.9998 89.8855C64.5622 89.8855 73.1248 81.192 73.1248 70.468C73.1248 69.8372 73.6284 69.3258 74.2498 69.3258C74.8711 69.3258 75.3748 69.8372 75.3748 70.468C75.3748 82.4536 65.8048 92.1699 53.9998 92.1699C53.3784 92.1699 52.8748 91.6585 52.8748 91.0277C52.8748 90.3969 53.3784 89.8855 53.9998 89.8855Z" fill="#ECC704"/>
<path fill-rule="evenodd" clip-rule="evenodd" d="M53.9998 51.05C43.4373 51.05 34.8748 59.7436 34.8748 70.4676C34.8748 71.0984 34.3711 71.6098 33.7498 71.6098C33.1284 71.6098 32.6248 71.0984 32.6248 70.4676C32.6248 58.4819 42.1947 48.7656 53.9998 48.7656C54.6211 48.7656 55.1248 49.277 55.1248 49.9078C55.1248 50.5387 54.6211 51.05 53.9998 51.05Z" fill="#FFEF9C"/>
</svg>
