<?xml version="1.0" encoding="UTF-8"?>
<svg width="22px" height="22px" viewBox="0 0 22 22" version="1.1" xmlns="http://www.w3.org/2000/svg" xmlns:xlink="http://www.w3.org/1999/xlink">
    <title>help-circle</title>
    <g id="Page-1" stroke="none" stroke-width="1" fill="none" fill-rule="evenodd" stroke-linecap="round" stroke-linejoin="round">
        <g id="Group" transform="translate(1.000000, 1.000000)" stroke="#6C5ECF">
            <path d="M10,20 C15.5228,20 20,15.5228 20,10 C20,4.47715 15.5228,0 10,0 C4.47715,0 0,4.47715 0,10 C0,15.5228 4.47715,20 10,20 Z" id="Path" stroke-width="1.5"></path>
            <path d="M7.09009,7.00008 C7.32519,6.33175 7.78924,5.76819 8.4,5.40921 C9.0108,5.05024 9.729,4.91902 10.4273,5.03879 C11.1255,5.15857 11.7589,5.52161 12.2152,6.06361 C12.6714,6.60561 12.9211,7.2916 12.920103,8.0001 C12.920103,10.0001 9.9201,11.0001 9.9201,11.0001" id="Path" stroke-width="1.5"></path>
            <line x1="10" y1="15" x2="10.01" y2="15" id="Path" stroke-width="2"></line>
        </g>
    </g>
</svg>