<svg width="96" height="109" viewBox="0 0 96 109" fill="none" xmlns="http://www.w3.org/2000/svg">
<path d="M60.3999 58.5997V63.3997C60.3999 69.7997 69.5999 72.5997 69.5999 72.5997C69.5999 72.5997 58.9999 80.5997 47.9999 80.5997C36.9999 80.5997 26.3999 72.5997 26.3999 72.5997C26.3999 72.5997 35.6723 69.7997 35.5999 63.3997C35.5275 56.9997 35.5759 53.2397 35.5275 42.2749C29.7947 34.8441 30.1627 29.8569 33.2975 26.3497C43.7999 14.5997 72.3999 18.5997 72.3999 18.5997C72.3999 18.5997 75.0687 47.3969 68.9999 55.7997C66.3999 59.3997 60.3999 58.5997 60.3999 58.5997Z" fill="#F7936F"/>
<path d="M60.3999 58.5988C51.5999 57.5988 46.3999 53.7988 46.3999 53.7988C49.6829 58.6558 54.6862 62.0866 60.3999 63.3988V58.5988Z" fill="#DB6F3D"/>
<path d="M90 84.722C93.808 92.4648 96 110.322 96 110.322H0C0 110.322 2.1928 92.4628 6 84.722C9.8072 76.9812 32.04 69.8016 32.04 69.8016C36.3252 78.5988 59.8432 78.5988 63.9484 69.7988C63.9484 69.7988 86.192 76.9792 90 84.722Z" fill="url(#paint0_linear_1219_765)"/>
<mask id="mask0_1219_765" style="mask-type:alpha" maskUnits="userSpaceOnUse" x="0" y="69" width="96" height="42">
<path d="M90 84.722C93.808 92.4648 96 110.322 96 110.322H0C0 110.322 2.1928 92.4628 6 84.722C9.8072 76.9812 32.04 69.8016 32.04 69.8016C36.3252 78.5988 59.8432 78.5988 63.9484 69.7988C63.9484 69.7988 86.192 76.9792 90 84.722Z" fill="url(#paint1_linear_1219_765)"/>
</mask>
<g mask="url(#mask0_1219_765)">
<path d="M-4 104.198V100.998H100V104.198H-4ZM-4 96.198V92.998H100V96.198H-4ZM-4 88.198V84.998H100V88.198H-4Z" fill="#FFA789"/>
</g>
<path d="M40.462 30.2827C39.19 29.1903 37.6444 28.4547 35.4596 29.5899C30.28 32.2791 34.2 42.5991 38.8 42.5991C40 42.5991 40.5968 46.3679 35.254 48.9991C35.254 44.799 28.854 34.3991 28.294 24.9303C21.854 22.5323 23.454 12.9375 27.8752 12.9375C27.1696 4.14226 41.254 -0.400939 46.7076 4.64666C52.254 -2.00094 66.254 1.39906 67.0992 7.16626C76.726 2.02746 83.054 16.7991 74.04 22.5335C70.3308 24.8935 61.654 25.7915 49.1288 25.7915C47.238 25.7915 46.1788 26.2611 46.7076 28.5991C47.7312 33.1295 45.3548 35.9831 40.462 30.2827Z" fill="url(#paint2_linear_1219_765)"/>
<defs>
<linearGradient id="paint0_linear_1219_765" x1="48" y1="110.322" x2="48" y2="69.7988" gradientUnits="userSpaceOnUse">
<stop stop-color="#FFC9B3"/>
<stop offset="1" stop-color="#FFD2C2"/>
</linearGradient>
<linearGradient id="paint1_linear_1219_765" x1="48" y1="110.322" x2="48" y2="69.7988" gradientUnits="userSpaceOnUse">
<stop stop-color="#FFC9B3"/>
<stop offset="1" stop-color="#FFD2C2"/>
</linearGradient>
<linearGradient id="paint2_linear_1219_765" x1="51.1934" y1="0.998047" x2="51.1934" y2="48.9991" gradientUnits="userSpaceOnUse">
<stop stop-color="#1D0024"/>
<stop offset="1" stop-color="#100014"/>
</linearGradient>
</defs>
</svg>
