<?xml version="1.0" encoding="UTF-8"?>
<svg width="21px" height="20px" viewBox="0 0 21 20" version="1.1" xmlns="http://www.w3.org/2000/svg" xmlns:xlink="http://www.w3.org/1999/xlink">
    <title>user</title>
    <g id="Page-1" stroke="none" stroke-width="1" fill="none" fill-rule="evenodd">
        <g id="user" transform="translate(1.250000, 1.249756)" stroke="#6C5ECF" stroke-width="1.5">
            <path d="M6.842,11.95704 C10.53099,11.95704 13.68399,12.51604 13.68399,14.74904 C13.68399,16.98204 10.55199,17.55704 6.842,17.55704 C3.152,17.55704 0,17.00304 0,14.76904 C0,12.53504 3.131,11.95704 6.842,11.95704 Z" id="Path"></path>
            <path d="M6.84206,8.77004 C4.42006,8.77004 2.45606,6.80704 2.45606,4.385 C2.45606,1.963 4.42006,0 6.84206,0 C9.26309,0 11.2271518,1.963 11.2271518,4.385 C11.23609,6.79804 9.28609,8.76104 6.87306,8.77004 L6.84206,8.77004 Z" id="Path"></path>
            <path d="M13.73369,7.63174 C15.33469,7.40674 16.56769,6.03277 16.57069,4.36977 C16.57069,2.73077 15.37569,1.37077 13.80869,1.11377" id="Path"></path>
            <path d="M15.84599,11.48244 C17.39699,11.71344 18.47999,12.25744 18.47999,13.37744 C18.47999,14.14844 17.96999,14.64844 17.14599,14.96144" id="Path"></path>
        </g>
    </g>
</svg>