<svg width="178" height="41" viewBox="0 0 178 41" fill="none" xmlns="http://www.w3.org/2000/svg">
<g clip-path="url(#clip0_2232_46726)">
<path d="M52.6895 23.6619C52.6895 26.6469 55.2029 29.0209 58.8899 29.0209C62.0249 29.0209 64.8384 27.2203 64.9617 24.0852C65.085 22.0381 64.1364 19.8623 60.2457 18.7744L58.1021 18.142C56.2425 17.6865 56.0442 16.6469 56.0442 16.1431C56.0442 14.8998 57.1964 14.0906 58.6273 14.0906C60.235 14.0906 61.2104 14.9748 61.2104 16.3682H64.4258C64.4258 13.1528 61.9392 11.1056 58.6755 11.1056C55.4119 11.1056 52.8556 13.1581 52.8556 16.2181C52.8556 17.7347 53.4612 19.9695 57.2232 21.0734L59.3668 21.6093C61.0228 22.0649 61.8266 22.8473 61.7516 23.9888C61.6766 25.1302 60.6209 26.0895 58.8899 26.0895C57.0303 26.0895 55.9799 24.9266 55.9049 23.6351L52.6895 23.6619Z" fill="white"/>
<path d="M71.505 12.4293H68.4717V16.9309H66.3281V19.4122H68.4717V28.7637H71.505V19.4122H73.9916V16.9309H71.505V12.4293Z" fill="white"/>
<path d="M83.8681 23.2331C83.8681 25.2803 82.6141 25.9877 81.3333 25.9877C80.2615 25.9877 79.0985 25.2803 79.0985 23.3564V16.9255H76.0117V23.8923C76.0117 27.231 77.8445 28.9781 80.6312 28.9781C81.2888 28.9674 81.932 28.784 82.4964 28.4463C83.0607 28.1086 83.5264 27.6285 83.8467 27.0542V28.7637H86.9067V16.9309H83.8467L83.8681 23.2331Z" fill="white"/>
<path d="M98.9808 28.7636H102.019V10.5428H98.9808V18.5386C98.3055 17.3489 96.8747 16.7165 95.2937 16.7165C92.2069 16.7165 89.5488 19.1173 89.5488 22.8901C89.5488 26.6629 92.2284 29.037 95.2937 29.037C96.8264 29.037 98.3055 28.3778 98.9808 27.1881V28.7636ZM98.9325 22.8151C98.95 23.2365 98.8816 23.657 98.7316 24.0512C98.5816 24.4454 98.3531 24.8049 98.0599 25.1081C97.7668 25.4113 97.4151 25.6518 97.0261 25.815C96.6372 25.9781 96.2192 26.0606 95.7975 26.0573C95.1595 26.0733 94.5312 25.899 93.9926 25.5567C93.454 25.2144 93.0294 24.7195 92.7729 24.1351C92.5164 23.5508 92.4396 22.9033 92.5523 22.2751C92.665 21.647 92.9621 21.0665 93.4057 20.6078C93.8493 20.149 94.4194 19.8326 95.0434 19.6988C95.6675 19.5651 96.3171 19.6201 96.9098 19.8568C97.5025 20.0935 98.0113 20.5012 98.3715 21.028C98.7317 21.5548 98.927 22.1769 98.9325 22.8151Z" fill="white"/>
<path d="M116.231 16.9309H112.968L110.031 24.2942L107.116 16.9309H103.857L108.423 27.8366L105.744 34.514H108.959L116.231 16.9309Z" fill="white"/>
<path d="M116.189 14.2943H121.055V28.7637H124.271V14.2943L129.142 14.2943V11.3361L116.189 11.3361V14.2943Z" fill="white"/>
<path d="M134.811 25.9609C134.398 25.9704 133.987 25.8943 133.605 25.7375C133.222 25.5806 132.877 25.3463 132.589 25.0493C132.302 24.7524 132.079 24.3991 131.935 24.0119C131.79 23.6246 131.728 23.2117 131.751 22.799C131.751 21.9875 132.073 21.2092 132.647 20.6353C133.221 20.0614 133.999 19.739 134.811 19.739C135.622 19.739 136.401 20.0614 136.975 20.6353C137.548 21.2092 137.871 21.9875 137.871 22.799C137.894 23.2117 137.831 23.6246 137.687 24.0119C137.543 24.3991 137.32 24.7524 137.032 25.0493C136.745 25.3463 136.399 25.5806 136.017 25.7375C135.635 25.8943 135.224 25.9704 134.811 25.9609ZM134.811 28.9727C136.027 28.9822 137.219 28.6305 138.236 27.9621C139.253 27.2937 140.048 26.3386 140.521 25.2179C140.995 24.0971 141.125 22.8611 140.895 21.6663C140.666 20.4716 140.087 19.3717 139.232 18.5062C138.377 17.6407 137.284 17.0484 136.092 16.8042C134.9 16.5601 133.663 16.6751 132.536 17.1348C131.41 17.5945 130.445 18.3781 129.765 19.3864C129.084 20.3948 128.717 21.5824 128.712 22.799C128.686 23.6106 128.825 24.4189 129.121 25.1749C129.417 25.9309 129.864 26.6186 130.435 27.1963C131.006 27.7739 131.688 28.2293 132.44 28.5347C133.192 28.8401 133.999 28.9891 134.811 28.9727Z" fill="white"/>
<path d="M146.59 24.5729C146.59 21.4325 147.442 19.5621 149.527 19.5621C150.137 19.545 150.743 19.6563 151.306 19.8891L151.842 17.1077C151.249 16.7949 150.583 16.6469 149.913 16.679C148.584 16.679 147.201 17.5632 146.601 19.7122V16.9309H143.541V28.7637H146.601L146.59 24.5729Z" fill="white"/>
<path d="M152.721 22.7991C152.715 23.6255 152.875 24.4446 153.192 25.2077C153.51 25.9708 153.977 26.6623 154.567 27.2409C155.157 27.8195 155.858 28.2733 156.627 28.5755C157.396 28.8776 158.218 29.0218 159.045 28.9995C159.986 29.0255 160.92 28.8284 161.77 28.4241C162.621 28.0199 163.363 27.42 163.937 26.6737L161.478 24.8516C161.197 25.23 160.829 25.5354 160.406 25.7424C159.982 25.9494 159.516 26.0519 159.045 26.0413C158.615 26.0463 158.189 25.9661 157.791 25.8054C157.393 25.6448 157.031 25.4068 156.726 25.1054C156.42 24.8039 156.178 24.4448 156.012 24.0489C155.846 23.6531 155.76 23.2283 155.759 22.7991C155.762 22.3753 155.85 21.9564 156.018 21.5673C156.186 21.1782 156.43 20.8269 156.737 20.5344C157.043 20.2418 157.406 20.014 157.802 19.8644C158.199 19.7149 158.621 19.6467 159.045 19.664C159.514 19.6481 159.98 19.7454 160.403 19.9479C160.827 20.1503 161.195 20.4518 161.478 20.8269L163.911 18.9781C163.338 18.2381 162.599 17.644 161.754 17.2444C160.908 16.8448 159.98 16.6511 159.045 16.679C155.684 16.679 152.721 19.0584 152.721 22.7991Z" fill="white"/>
<path d="M169.447 22.4453C169.447 20.3982 170.974 19.6908 172.255 19.6908C172.594 19.6894 172.93 19.7577 173.242 19.8913C173.554 20.025 173.835 20.2212 174.068 20.4678C174.301 20.7144 174.481 21.0062 174.597 21.3252C174.713 21.6441 174.762 21.9834 174.741 22.3221V28.753H177.801V22.1667C177.801 18.6994 176.119 16.679 173.086 16.679C171.933 16.679 169.972 17.3382 169.447 18.753V10.5054H166.387V28.7262H169.447V22.4453Z" fill="white"/>
<path d="M9.13621 0.269544L20.3581 0.269544C21.4566 0.267569 22.5437 0.492126 23.5515 0.929188C24.5594 1.36625 25.4662 2.00642 26.2155 2.80973L32.073 9.10662C33.4507 10.5849 34.2168 12.5306 34.2166 14.5514L34.2166 31.2878C34.2229 32.4614 33.998 33.6248 33.5545 34.7114C33.1111 35.7981 32.4579 36.7867 31.6323 37.6208C30.8066 38.4549 29.8247 39.1181 28.7426 39.5726C27.6606 40.0271 26.4995 40.2639 25.3259 40.2695H9.54886C7.06053 40.2568 4.67879 39.2579 2.92579 37.4918C1.1728 35.7258 0.191599 33.3367 0.197306 30.8483L0.197306 9.29419C0.190165 6.91335 1.12692 4.62674 2.80238 2.9352C4.47784 1.24367 6.75541 0.285132 9.13621 0.269544Z" fill="#E1E8FF"/>
<path fill-rule="evenodd" clip-rule="evenodd" d="M13.3112 13.9352L6.60165 13.9352C6.20691 13.9408 5.83017 14.1012 5.55253 14.3818C5.27489 14.6625 5.11855 15.0409 5.11719 15.4357C5.11861 15.8285 5.27563 16.2047 5.55387 16.4819C5.83211 16.7592 6.20887 16.9148 6.60165 16.9148H13.3005C13.6932 16.9148 14.07 16.7592 14.3482 16.4819C14.6265 16.2047 14.7835 15.8285 14.7849 15.4357C14.7836 15.0428 14.6288 14.6659 14.3534 14.3855C14.0781 14.1052 13.7041 13.9436 13.3112 13.9352ZM6.60165 26.9255H17.3787C17.7591 26.9027 18.1164 26.7356 18.3777 26.4582C18.6389 26.1808 18.7844 25.8141 18.7844 25.433C18.7844 25.052 18.6389 24.6853 18.3777 24.4079C18.1164 24.1305 17.7591 23.9633 17.3787 23.9405H6.60165C6.22127 23.9633 5.86396 24.1305 5.6027 24.4079C5.34144 24.6853 5.19594 25.052 5.19594 25.433C5.19594 25.8141 5.34144 26.1808 5.6027 26.4582C5.86396 26.7356 6.22127 26.9027 6.60165 26.9255Z" fill="#6C5ECF"/>
<path opacity="0.1" d="M25.6796 13.2545C27.0568 13.2545 28.9754 13.2545 30.6045 13.2545C30.7895 13.2518 30.9698 13.1953 31.1233 13.092C31.2768 12.9887 31.3969 12.8429 31.469 12.6725C31.5412 12.5021 31.5622 12.3144 31.5295 12.1323C31.4969 11.9502 31.412 11.7815 31.2851 11.6468L23.3108 3.27056C23.1777 3.14184 23.0098 3.05493 22.8278 3.02053C22.6458 2.98613 22.4577 3.00577 22.2868 3.077C22.1158 3.14823 21.9695 3.26794 21.8658 3.42138C21.762 3.57482 21.7055 3.75525 21.7031 3.94044V9.21375C21.7016 10.2748 22.118 11.2937 22.8623 12.05C23.6065 12.8063 24.6186 13.239 25.6796 13.2545Z" fill="white"/>
<path d="M43.2701 16.2716C43.6363 15.9053 41.6038 13.279 38.7304 10.4055C35.8569 7.53205 33.2306 5.49953 32.8643 5.86578C32.4981 6.23203 34.5306 8.85834 37.4041 11.7318C40.2775 14.6053 42.9038 16.6378 43.2701 16.2716Z" fill="#FFB89E"/>
<path d="M20.2116 33.7934L29.4184 24.5866C29.7869 24.2267 30.2298 23.9519 30.7159 23.7816C31.2019 23.6112 31.7194 23.5494 32.2319 23.6005C33.3032 23.6931 34.3817 23.5491 35.3911 23.1786C36.4006 22.8082 37.3162 22.2204 38.0733 21.4569L43.2716 16.2532L32.8697 5.85132L27.666 11.0496C26.9025 11.8067 26.3147 12.7223 25.9443 13.7318C25.5738 14.7412 25.4298 15.8197 25.5224 16.891C25.5735 17.4035 25.5117 17.921 25.3413 18.4071C25.171 18.8931 24.8962 19.336 24.5363 19.7045L15.3295 28.9113C15.0462 29.1919 14.8214 29.5258 14.668 29.8937C14.5146 30.2616 14.4355 30.6563 14.4355 31.055C14.4355 31.4536 14.5146 31.8483 14.668 32.2162C14.8214 32.5842 15.0462 32.918 15.3295 33.1986L15.9243 33.7934C16.2052 34.076 16.5392 34.3003 16.9071 34.4533C17.275 34.6063 17.6695 34.6851 18.068 34.6851C18.4664 34.6851 18.8609 34.6063 19.2288 34.4533C19.5967 34.3003 19.9307 34.076 20.2116 33.7934Z" fill="#F7936F"/>
<path d="M24.4743 23.2906L23.8187 23.9462C23.4399 24.325 23.4399 24.9392 23.8187 25.318C24.1975 25.6968 24.8117 25.6968 25.1905 25.318L25.846 24.6624C26.2248 24.2836 26.2248 23.6694 25.846 23.2906C25.4672 22.9118 24.8531 22.9118 24.4743 23.2906Z" fill="white"/>
<path d="M40.7305 8.23602C40.7306 8.12946 40.773 8.02729 40.8484 7.95199L41.7433 7.05704C41.7745 7.00653 41.8165 6.96356 41.8662 6.9312C41.916 6.89885 41.9723 6.8779 42.0311 6.86989C42.0899 6.86188 42.1498 6.86699 42.2064 6.88486C42.263 6.90272 42.3149 6.9329 42.3584 6.97322C42.402 7.01354 42.4361 7.06301 42.4582 7.11807C42.4804 7.17313 42.4901 7.23241 42.4866 7.29166C42.4831 7.35091 42.4666 7.40864 42.4381 7.46073C42.4097 7.51282 42.3701 7.55798 42.3221 7.59294L41.4271 8.48789C41.3709 8.54403 41.2994 8.58227 41.2214 8.59775C41.1435 8.61323 41.0628 8.60526 40.9894 8.57487C40.916 8.54448 40.8532 8.49302 40.809 8.42699C40.7649 8.36096 40.7413 8.28331 40.7412 8.20387L40.7305 8.23602Z" fill="#F9B226"/>
<path d="M34.9435 4.51149C34.9418 4.4504 34.9547 4.38978 34.981 4.33463L35.5169 3.19316C35.5377 3.14461 35.5678 3.1006 35.6056 3.06369C35.6433 3.02677 35.688 2.99764 35.737 2.97799C35.786 2.95833 35.8384 2.94852 35.8913 2.94912C35.9441 2.94972 35.9962 2.96071 36.0448 2.98147C36.0933 3.00223 36.1373 3.03235 36.1743 3.07011C36.2112 3.10788 36.2403 3.15255 36.26 3.20157C36.2796 3.25059 36.2894 3.30299 36.2888 3.35579C36.2882 3.4086 36.2772 3.46079 36.2565 3.50935V3.5415L35.7206 4.68298C35.6743 4.77884 35.5919 4.85241 35.4914 4.88758C35.3909 4.92274 35.2806 4.91661 35.1847 4.87054C35.1162 4.83771 35.0586 4.78593 35.0187 4.72133C34.9788 4.65674 34.9583 4.58204 34.9596 4.50612L34.9435 4.51149Z" fill="#F9B226"/>
<path d="M44.4551 14.0238C44.4557 13.9483 44.4769 13.8744 44.5166 13.8101C44.5563 13.7459 44.6129 13.6937 44.6802 13.6594L45.8216 13.1235C45.8703 13.1006 45.9232 13.0879 45.977 13.086C46.0307 13.0842 46.0843 13.0934 46.1345 13.1129C46.1846 13.1325 46.2302 13.162 46.2686 13.1998C46.3069 13.2375 46.3372 13.2827 46.3575 13.3325C46.404 13.4278 46.4109 13.5376 46.3768 13.638C46.3426 13.7383 46.2702 13.8212 46.1753 13.8684L45.0392 14.4043C44.9433 14.4504 44.8329 14.4565 44.7325 14.4213C44.632 14.3862 44.5496 14.3126 44.5033 14.2167C44.4737 14.1566 44.4573 14.0908 44.4551 14.0238Z" fill="#F9B226"/>
</g>
<defs>
<clipPath id="clip0_2232_46726">
<rect width="177.605" height="40" fill="white" transform="translate(0.197266 0.5)"/>
</clipPath>
</defs>
</svg>
