<svg width="117" height="37" viewBox="0 0 117 37" fill="none" xmlns="http://www.w3.org/2000/svg">
<path fill-rule="evenodd" clip-rule="evenodd" d="M34.0411 25.998L34.0412 25.9982C34.5613 27.3234 34.6769 28.5911 34.5035 29.8587C34.099 32.5092 32.3653 34.8139 29.8225 35.8511C28.8978 36.2544 27.9153 36.4272 26.8751 36.4272C26.5862 36.4272 26.2394 36.4272 25.9505 36.3696C24.7368 36.2544 23.5232 35.8511 22.3096 35.1596C20.8648 34.353 19.4201 33.143 17.8019 31.4144C16.1838 33.143 14.7968 34.353 13.2942 35.1596C12.0806 35.8511 10.867 36.1968 9.65338 36.3696C9.5089 36.3696 9.34997 36.384 9.19105 36.3984C9.03212 36.4128 8.8732 36.4272 8.72872 36.4272C7.68848 36.4272 6.70603 36.2544 5.78138 35.8511C3.29636 34.8139 1.44705 32.5668 1.04251 29.8587C0.869137 28.5334 1.04251 27.2658 1.50484 25.9982C1.67821 25.4796 1.85158 25.0763 2.02496 24.673L2.02498 24.6729C2.31393 24.0391 2.60287 23.4053 2.83403 22.8292L2.89182 22.7715C5.43463 17.3553 8.09302 11.8815 10.867 6.46534L10.9826 6.23487C11.2715 5.71632 11.5605 5.14015 11.8494 4.56399L11.8494 4.56392C11.9273 4.44198 12.0051 4.31791 12.0837 4.19253C12.4139 3.66619 12.7586 3.11674 13.1786 2.60487C14.3922 1.22201 16.0104 0.415344 17.8019 0.415344C19.5356 0.415344 21.2116 1.22201 22.3674 2.66249C22.9453 3.2963 23.3499 3.98773 23.6966 4.62153C23.9856 5.19773 24.2745 5.77392 24.5635 6.29249L24.679 6.52296C27.5108 11.9392 30.1692 17.413 32.6542 22.8292H32.712C32.9432 23.4053 33.2321 24.0391 33.5211 24.6729L33.5211 24.673C33.6944 25.0762 33.8678 25.5371 34.0411 25.998ZM61.9543 9.46153C61.9543 10.7868 60.914 11.8239 59.5848 11.8239C58.2556 11.8239 57.2154 10.7868 57.2154 9.46153C57.2154 8.1363 58.2556 7.09915 59.5848 7.09915C60.9718 7.15677 61.9543 8.19392 61.9543 9.46153ZM52.3032 14.1863V14.7625C52.3032 14.7625 51.2051 13.322 48.7779 13.322C44.8481 13.322 41.7852 16.3182 41.7852 20.4668C41.7852 24.5577 44.8481 27.6115 48.7779 27.6115C51.2051 27.6115 52.3032 26.1134 52.3032 26.1134V26.7472C52.3032 27.0353 52.5343 27.2658 52.8233 27.2658H55.7706V13.6677H52.8233C52.4765 13.6677 52.3032 13.8982 52.3032 14.1863ZM49.3558 24.3272C50.685 24.3272 51.7831 23.6358 52.3032 22.8292V17.9892C51.7831 17.2401 50.6272 16.4911 49.3558 16.4911C47.0442 16.4911 45.2527 17.9315 45.2527 20.4092C45.2527 22.8868 47.0442 24.3272 49.3558 24.3272ZM57.8511 13.6677H61.3186V27.2082H57.8511V13.6677ZM106.164 14.7625C106.164 14.7625 107.32 13.322 109.69 13.322C113.619 13.322 116.682 16.3182 116.682 20.4092C116.682 24.5001 113.619 27.5539 109.69 27.5539C107.262 27.5539 106.164 26.0558 106.164 26.0558V26.6896C106.164 26.9777 105.933 27.2082 105.644 27.2082H102.697V7.15677H106.164V14.7625ZM109.112 24.2696C107.783 24.2696 106.742 23.5782 106.164 22.7715V17.9315C106.685 17.1825 107.84 16.4334 109.112 16.4334C111.423 16.4334 113.215 17.8739 113.215 20.3515C113.215 22.8292 111.423 24.2696 109.112 24.2696ZM100.905 27.2658V19.1992C100.905 16.8944 100.443 15.6268 99.2873 14.6472C98.247 13.783 96.9756 13.322 95.4731 13.322C94.1439 13.322 92.8147 13.7253 91.7745 14.7625V14.1863C91.7745 13.8982 91.5433 13.6677 91.2543 13.6677H88.4804V27.2658H91.9478V17.8163C92.6413 17.0096 93.7393 16.4911 94.7796 16.4911C96.6867 16.4911 97.438 17.3553 97.438 19.6025V27.2658H100.905ZM80.0429 13.322C77.6734 13.322 76.5176 14.7625 76.5176 14.7625V7.15677H73.0502V27.2082H75.9975C76.2865 27.2082 76.5176 26.9777 76.5176 26.6896V26.0558C76.5176 26.0558 77.6156 27.5539 80.0429 27.5539C83.9727 27.5539 87.0356 24.5001 87.0356 20.4092C87.0934 16.3182 84.0305 13.322 80.0429 13.322ZM76.5176 22.7715C77.0955 23.5782 78.1358 24.2696 79.465 24.2696C81.7766 24.2696 83.5681 22.8292 83.5681 20.3515C83.5681 17.8739 81.7766 16.4334 79.465 16.4334C78.1936 16.4334 77.0377 17.1825 76.5176 17.9315V22.7715ZM70.1028 13.322C71.1431 13.322 71.721 13.4949 71.721 13.4949V16.7215C71.721 16.7215 68.8314 15.742 67.0399 17.8163V27.2658H63.5724V13.6677H66.5198C66.8087 13.6677 67.0399 13.8982 67.0399 14.1863V14.7625C67.6178 14.0134 69.0048 13.322 70.1028 13.322ZM17.7441 27.842C15.7792 25.3644 14.5078 23.0596 14.1033 21.1582C13.9299 20.3515 13.8721 19.6025 13.9877 18.9687C14.0455 18.3925 14.2767 17.8739 14.5656 17.4706C15.2591 16.4911 16.4149 15.8572 17.7441 15.8572C19.0733 15.8572 20.2869 16.4334 20.9226 17.4706C21.2116 17.9315 21.4428 18.3925 21.5005 18.9687C21.6161 19.6025 21.5583 20.3515 21.385 21.1582C20.9804 23.0596 19.709 25.3644 17.7441 27.842ZM28.8978 33.7768C30.6893 33.0853 31.9607 31.472 32.1919 29.5706C32.3075 28.5911 32.1919 27.7268 32.0185 26.8049C31.9559 26.6177 31.8764 26.4305 31.7891 26.2251C31.7152 26.0511 31.6357 25.8639 31.5562 25.6525C31.4117 25.3644 31.2817 25.0619 31.1516 24.7594C31.0216 24.4569 30.8916 24.1544 30.7471 23.8663V23.8087C28.2621 18.4501 25.6037 12.9763 22.8297 7.61773L22.7142 7.38725C22.4252 6.81106 22.1362 6.23487 21.8473 5.7163C21.5583 5.14011 21.2116 4.56392 20.807 4.10296C20.0558 3.23868 19.0155 2.77773 17.9175 2.77773C16.8195 2.77773 15.7792 3.23868 15.0279 4.10296C14.6234 4.62153 14.2767 5.14011 13.9877 5.7163L13.9876 5.71641C13.6987 6.29256 13.4098 6.86871 13.1208 7.38725L13.0053 7.61773C10.1735 12.9763 7.51511 18.4501 5.03009 23.8087L4.9723 23.8663C4.68335 24.4425 4.39439 25.0763 4.16323 25.6525L4.16321 25.6525C3.98984 26.0558 3.81648 26.4592 3.7009 26.8049C3.29636 27.842 3.23857 28.7063 3.35415 29.6282C3.58532 31.472 4.85672 33.0853 6.64824 33.8344C7.45732 34.1225 8.38197 34.2953 9.36442 34.1801C10.2891 34.0649 11.2137 33.7768 12.1384 33.2582C13.4098 32.5092 14.739 31.4144 16.2416 29.7434C13.8721 26.8049 12.3696 24.0968 11.8494 21.7344C11.5605 20.6396 11.5027 19.6025 11.6761 18.6806C11.8494 17.7587 12.1384 16.952 12.6585 16.203C13.7565 14.6472 15.6636 13.6677 17.7441 13.6677C19.8246 13.6677 21.7317 14.5896 22.8297 16.203C23.3499 16.952 23.6388 17.7587 23.8122 18.6806C23.9278 19.6025 23.87 20.6396 23.6388 21.7344C23.0609 24.0968 21.6161 26.7472 19.2467 29.6858C20.7493 31.3568 22.0207 32.4515 23.3499 33.2006C24.3323 33.7192 25.1992 34.0073 26.1238 34.1225C27.1063 34.2377 28.0309 34.1225 28.8978 33.7768Z" fill="#AEC0CE"/>
</svg>
