<svg width="117" height="39" viewBox="0 0 117 39" fill="none" xmlns="http://www.w3.org/2000/svg">
<path d="M29.4585 13.552H15.9165V17.545H25.5463C25.0648 23.1715 20.3703 25.652 15.9767 25.652C10.3191 25.652 5.38385 21.175 5.38385 14.9435C5.38385 8.83299 10.0784 4.11399 15.9767 4.11399C20.5509 4.11399 23.1991 7.01799 23.1991 7.01799L25.9676 4.11399C25.9676 4.11399 22.3565 0.120991 15.7961 0.120991C7.43019 0.0604905 0.990234 7.13899 0.990234 14.8225C0.990234 22.3245 7.06907 29.645 16.0369 29.645C23.9213 29.645 29.6992 24.2605 29.6992 16.214C29.6992 14.52 29.4585 13.552 29.4585 13.552Z" fill="#AEC0CE"/>
<path fill-rule="evenodd" clip-rule="evenodd" d="M30.9629 20.0255C30.9629 14.9435 34.9352 10.5875 40.4724 10.5875C45.0465 10.5875 49.9818 13.8545 50.042 20.1465C50.042 25.7125 45.829 29.645 40.5927 29.645C34.8148 29.645 30.9629 25.2285 30.9629 20.0255ZM45.829 20.1465C45.829 16.6375 43.2409 14.399 40.5325 14.399C37.463 14.399 35.1158 16.819 35.1759 20.086C35.1759 23.474 37.5232 25.894 40.5325 25.894C43.3011 25.894 45.829 23.6555 45.829 20.1465Z" fill="#AEC0CE"/>
<path fill-rule="evenodd" clip-rule="evenodd" d="M51.668 20.0255C51.668 14.9435 55.6403 10.5875 61.1774 10.5875C65.7516 10.5875 70.6869 13.8545 70.7471 20.1465C70.7471 25.7125 66.534 29.645 61.2978 29.645C55.5199 29.645 51.668 25.2285 51.668 20.0255ZM66.534 20.1465C66.534 16.6375 63.946 14.399 61.2376 14.399C58.1681 14.399 55.8208 16.819 55.881 20.086C55.881 23.474 58.2283 25.894 61.2376 25.894C64.0062 25.894 66.534 23.6555 66.534 20.1465Z" fill="#AEC0CE"/>
<path fill-rule="evenodd" clip-rule="evenodd" d="M72.3711 20.1465C72.3711 15.125 76.3434 10.648 81.4593 10.648C83.6862 10.648 85.3714 11.495 86.4547 12.826V11.1925H90.4271V28.314C90.4271 35.0295 86.5751 38.236 81.5194 38.236C76.8851 38.236 74.2971 35.3925 73.0331 32.67L76.7045 31.1575C77.2462 32.3675 78.6907 34.5455 81.5796 34.5455C84.589 34.5455 86.5751 32.549 86.5751 29.282V27.4065C85.4316 28.677 84.0473 29.7055 81.3389 29.7055C77.0055 29.7055 72.3711 25.8335 72.3711 20.1465ZM86.876 20.207C86.876 16.577 84.288 14.399 81.8204 14.399C79.1722 14.399 76.5842 16.5165 76.524 20.2675C76.524 23.716 79.0518 25.9545 81.7602 25.9545C84.3482 25.9545 86.876 23.958 86.876 20.207Z" fill="#AEC0CE"/>
<path fill-rule="evenodd" clip-rule="evenodd" d="M99.3945 20.086C99.3945 14.399 103.427 10.5875 108.242 10.5875C111.974 10.5875 114.802 13.1285 116.066 16.0325L116.728 17.6055L104.029 22.9295C104.811 24.3815 106.015 25.8335 108.663 25.8335C111.011 25.8335 112.455 24.563 113.298 23.232L116.608 25.4705C115.163 27.4065 112.636 29.645 108.663 29.645C103.909 29.645 99.3945 26.0755 99.3945 20.086ZM111.913 16.335C111.311 15.1855 110.108 14.278 108.362 14.278C105.654 14.278 103.006 17.1215 103.487 19.9045L111.913 16.335Z" fill="#AEC0CE"/>
<path d="M93.377 29.1005H97.5298V1.0285H93.377V29.1005Z" fill="#AEC0CE"/>
</svg>
