<svg width="116" height="32" viewBox="0 0 116 32" fill="none" xmlns="http://www.w3.org/2000/svg">
<path fill-rule="evenodd" clip-rule="evenodd" d="M12.8903 30.1833L12.8902 30.1833L12.8901 30.1833C12.2216 30.2518 11.5429 30.3214 10.8479 30.4069L5.27222 14.2765V31.0933C3.52982 31.2649 1.96166 31.4937 0.277344 31.7797V0.948914H4.92374L11.2545 18.4521V0.948914H16.1913V29.7777C15.1005 29.9568 14.0097 30.0685 12.8904 30.1833L12.8903 30.1833L12.8903 30.1833L12.8903 30.1833ZM29.2639 12.2153H29.2639L29.2641 12.2153C30.4181 12.1874 31.5452 12.1601 32.3956 12.1601V16.9649C30.2466 16.9649 27.6911 16.9649 25.8325 17.0793V24.2293C26.7376 24.1747 27.6486 24.1144 28.5635 24.0538L28.5636 24.0538L28.5639 24.0537H28.5639H28.5639H28.5639H28.564C30.5258 23.9237 32.5062 23.7925 34.4865 23.7145V28.3477L20.9538 29.3773V0.948914H34.4865V5.75371H25.8325V12.2745C26.8137 12.2745 28.0535 12.2445 29.2638 12.2153H29.2638H29.2639H29.2639H29.2639ZM47.5545 5.81091H52.6074C52.6074 5.81091 52.6074 0.948914 52.6655 0.948914H37.6228V5.81091H42.6757V28.0045C44.2439 27.9473 45.9282 27.9473 47.5545 27.9473V5.81091ZM60.5644 11.9313H67.2436V16.7361H60.5644V27.6613H55.7437V0.948914H69.3925V5.75371H60.5644V11.9313ZM82.4143 23.6585C80.7347 23.5612 79.0421 23.4632 77.3495 23.4285V0.948914H72.4708V27.9473C76.9429 28.0617 81.299 28.2905 85.6549 28.5765V23.8289C84.5825 23.784 83.5012 23.7214 82.4143 23.6585ZM91.4269 29.0251L91.4273 29.0252C92.4738 29.0875 93.5365 29.1508 94.5993 29.2629V0.948914H89.7786V28.9197C90.3219 28.9593 90.8721 28.9921 91.4269 29.0251ZM109.758 15.5921L115.973 0.948914H110.571L107.145 9.01411L103.95 0.948914H98.723L104.415 15.4205L98.1422 29.4917C98.8391 29.5832 99.5361 29.6565 100.233 29.7297C101.278 29.8395 102.324 29.9493 103.369 30.1209L106.97 21.9413L110.455 30.8645C111.106 30.9647 111.75 31.0719 112.391 31.1787C113.582 31.3769 114.765 31.5738 115.973 31.7225L109.758 15.5921Z" fill="#AEC0CE"/>
</svg>
