<svg width="133" height="39" viewBox="0 0 133 39" fill="none" xmlns="http://www.w3.org/2000/svg">
<path d="M24.2385 3.96212C23.7088 2.22639 21.8547 1.29177 20.133 1.82584C18.4113 2.35991 17.4842 4.22915 18.014 5.96488L26.49 32.2678C27.086 33.87 28.8076 34.8046 30.4631 34.3373C32.1848 33.8032 33.2443 32.0007 32.7146 30.265C32.7146 30.1983 24.2385 3.96212 24.2385 3.96212Z" fill="#AEC0CE"/>
<path d="M11.1272 8.30141C10.5975 6.56569 8.74333 5.63107 7.02164 6.16514C5.29995 6.69921 4.37288 8.56845 4.90263 10.3042L13.3787 36.6071C13.9746 38.2093 15.6963 39.1439 17.3518 38.6766C19.0735 38.1425 20.133 36.34 19.6032 34.6043C19.6032 34.5376 11.1272 8.30141 11.1272 8.30141Z" fill="#AEC0CE"/>
<path d="M34.9657 25.7922C36.6874 25.2581 37.6145 23.3889 37.0847 21.6532C36.555 19.9174 34.7008 18.9828 32.9791 19.5169L6.82267 27.9952C5.23342 28.5961 4.30636 30.3318 4.76989 32.0007C5.29964 33.7365 7.08755 34.8046 8.80924 34.2705C8.94168 34.2705 34.9657 25.7922 34.9657 25.7922Z" fill="#AEC0CE"/>
<path d="M12.252 33.2024C13.9737 32.6683 16.1589 31.934 18.4766 31.1329C17.9468 29.3971 17.2184 27.1941 16.4238 24.8575L10.1992 26.9271L12.252 33.2024Z" fill="#AEC0CE"/>
<path d="M25.4297 28.8631C27.8136 28.062 29.9988 27.3944 31.6543 26.7936C31.1246 25.0578 30.3962 22.8548 29.6015 20.5182L23.377 22.5878L25.4297 28.8631Z" fill="#AEC0CE"/>
<path d="M30.6612 12.5072C32.3829 11.9732 33.31 10.1039 32.7802 8.36819C32.2505 6.63246 30.3963 5.69784 28.6746 6.23191L2.58439 14.777C0.995139 15.3778 0.0680746 17.1136 0.531607 18.7825C1.06136 20.585 2.84927 21.6532 4.57096 21.0523C4.63718 21.0523 30.6612 12.5072 30.6612 12.5072Z" fill="#AEC0CE"/>
<path d="M8.01372 19.9174C9.73542 19.3833 11.9206 18.649 14.2383 17.8479C13.4437 15.4446 12.7815 13.2415 12.1855 11.5726L5.96094 13.6421L8.01372 19.9174Z" fill="#AEC0CE"/>
<path d="M21.1251 15.6449C23.5089 14.8438 25.6942 14.1762 27.3496 13.5754C26.555 11.172 25.8928 8.96901 25.2968 7.30005L19.0723 9.36957L21.1251 15.6449Z" fill="#AEC0CE"/>
<path d="M61.3874 10.905C62.5131 11.439 62.6456 11.7728 61.7185 13.5086C60.7914 15.311 60.5928 15.3778 59.4008 14.9105C57.944 14.3097 56.1561 13.8424 54.9642 13.8424C53.0438 13.8424 51.7857 14.5099 51.7857 15.5781C51.7857 19.0495 62.8442 17.1803 62.8442 24.6573C62.8442 28.3957 59.6657 30.8658 54.8979 30.8658C52.3816 30.8658 49.2693 29.9979 47.1503 28.9298C46.0908 28.3957 46.0246 28.0619 46.9517 26.2595C47.7463 24.724 48.0112 24.5237 49.1369 24.991C50.991 25.7921 53.2425 26.393 54.8317 26.393C56.6196 26.393 57.7454 25.6586 57.7454 24.5905C57.7454 21.1858 46.4881 22.788 46.4881 15.5781C46.4881 11.7728 49.6667 9.16925 54.3682 9.16925C56.6196 9.36953 59.4671 10.0371 61.3874 10.905Z" fill="#AEC0CE"/>
<path d="M70.3256 2.09286V29.8644C70.3256 30.265 69.8621 30.7323 69.2661 30.7323H66.3525C65.6903 30.7323 65.293 30.265 65.293 29.8644V2.09286C65.293 0.69093 65.6903 0.624171 67.8093 0.624171C70.1932 0.557412 70.3256 0.757688 70.3256 2.09286Z" fill="#AEC0CE"/>
<path fill-rule="evenodd" clip-rule="evenodd" d="M90.8549 29.5974V17.6476C90.8549 12.4405 87.3453 9.36957 81.7829 9.36957C79.2666 9.36957 76.4854 10.1707 74.4988 11.5058C73.4393 12.1734 73.4393 12.5072 74.4988 14.1762C75.6246 15.8452 75.8232 15.9119 76.8827 15.3111C78.2071 14.51 79.8626 13.9759 81.2532 13.9759C84.1668 13.9759 85.8885 15.3111 85.8885 17.5141V18.9161C84.4979 18.3152 82.7762 17.9814 80.9221 17.9814C75.9557 17.9814 72.7109 20.6518 72.7109 24.6573C72.7109 28.3958 75.6246 30.9326 79.9288 30.9326C82.1802 30.9326 84.4317 29.998 85.9547 28.2623L85.8885 29.5307C85.8223 30.1983 86.2858 30.6656 86.948 30.6656H89.7954C90.3914 30.6656 90.8549 30.265 90.8549 29.5974ZM80.5248 26.9271C78.7369 26.9271 77.5449 25.9925 77.5449 24.5905C77.5449 22.8548 79.3328 21.5196 81.9816 21.5196C83.2397 21.5196 84.6966 21.7199 85.8223 22.1872V24.0565C84.6966 25.8589 82.71 26.9271 80.5248 26.9271Z" fill="#AEC0CE"/>
<path d="M110.521 10.9717C111.581 11.5726 111.581 11.9064 110.455 13.7089C109.396 15.3778 109.197 15.5113 108.005 14.9105C107.144 14.4432 105.687 14.0426 104.562 14.0426C100.92 14.0426 98.5358 16.446 98.5358 20.1177C98.5358 23.9229 100.92 26.4597 104.562 26.4597C105.82 26.4597 107.409 25.9924 108.402 25.3916C109.462 24.7908 109.661 24.7908 110.786 26.4597C111.78 27.9952 111.78 28.329 110.853 28.9966C109.263 30.1315 106.681 30.9993 104.429 30.9993C97.7412 30.9993 93.2383 26.66 93.2383 20.1844C93.2383 13.7089 97.7412 9.4363 104.495 9.4363C106.615 9.36954 108.998 10.0371 110.521 10.9717Z" fill="#AEC0CE"/>
<path d="M132.44 28.0619C133.301 29.1301 132.969 29.5306 130.85 30.265C128.731 31.0661 128.4 30.9993 127.672 29.9979L121.646 21.9201L118.931 24.5237V29.7977C118.931 30.1982 118.468 30.6655 117.872 30.6655H114.958C114.296 30.6655 113.898 30.1982 113.898 29.7977V2.09284C113.898 0.690904 114.296 0.624146 116.415 0.624146C118.865 0.624146 118.931 0.824421 118.931 2.09284V17.8479L127.142 9.90359C128.069 9.03573 128.533 9.10249 130.188 10.1706C131.976 11.3055 132.109 11.6393 131.248 12.5072L125.156 18.5155L132.44 28.0619Z" fill="#AEC0CE"/>
</svg>
