<svg width="117" height="26" viewBox="0 0 117 26" fill="none" xmlns="http://www.w3.org/2000/svg">
<path d="M19.0733 1.2365V14.887C19.0733 19.4372 17.1084 21.3281 12.4851 21.3281C7.86186 21.3281 5.89696 19.4372 5.89696 14.887V0.645569H1.44705C1.04251 0.645569 0.869141 0.822848 0.869141 1.2365V15.0643C0.869141 22.6873 5.60801 25.3465 12.4851 25.3465C19.3623 25.3465 24.1011 22.6873 24.1011 15.0643V0.645569H19.6512C19.3045 0.645569 19.0733 0.822848 19.0733 1.2365Z" fill="#AEC0CE"/>
<path d="M83.6259 4.6048C83.9727 4.6048 84.1461 4.48662 84.2617 4.19115L85.5331 0.941034C85.5908 0.763755 85.5331 0.645569 85.3597 0.645569H67.4445C65.7685 0.645569 65.1328 1.17741 65.1328 2.35927V23.5146C65.1328 24.5192 65.5951 24.9328 66.9243 24.9328H83.6259C83.9727 24.9328 84.1461 24.8146 84.2617 24.5192L85.5331 21.269C85.5908 21.0918 85.5331 20.9736 85.3597 20.9736H70.0451V16.6598C70.0451 15.1825 70.8541 14.4733 72.9924 14.4733H79.6384C79.9851 14.4733 80.1585 14.3552 80.2741 14.0597L81.4877 10.9278C81.5455 10.7505 81.4877 10.6323 81.3143 10.6323H69.9873V4.6048H83.6259Z" fill="#AEC0CE"/>
<path fill-rule="evenodd" clip-rule="evenodd" d="M54.846 6.79124C54.846 9.09587 54.037 11.0459 52.0721 12.1096C54.7305 12.8778 55.9441 15.3006 55.8863 18.1962C55.8863 23.0418 52.5344 24.9328 47.8533 24.9328H35.4282C34.099 24.9328 33.6367 24.5192 33.6367 23.5146V2.35927C33.6367 1.17741 34.2724 0.645569 35.9484 0.645569H46.1196C50.5695 0.645569 54.846 1.41378 54.846 6.79124ZM38.6067 4.54571H46.4663C49.0669 4.54571 49.8182 5.55029 49.8182 7.67764C49.8182 9.7459 49.0669 10.8096 46.4663 10.8096H38.6067V4.54571ZM47.391 21.0327H38.6067V16.6007C38.6067 15.1234 39.4158 14.4142 41.5541 14.4142H47.391C50.165 14.4142 50.974 15.537 50.974 17.7235C50.974 19.969 50.165 21.0327 47.391 21.0327Z" fill="#AEC0CE"/>
<path fill-rule="evenodd" clip-rule="evenodd" d="M111.308 15.1825L116.625 24.5192C116.741 24.6373 116.741 24.9328 116.336 24.9328H111.829C111.495 24.9328 111.376 24.769 111.213 24.5464C111.206 24.5374 111.2 24.5283 111.193 24.5192L106.396 15.6552H102.004C99.8658 15.6552 99.0568 16.3643 99.0568 17.8416V24.9328H94.7224C94.3179 24.9328 94.1445 24.7555 94.1445 24.3419V2.35927C94.1445 1.17741 94.7802 0.645569 96.4562 0.645569H106.627C112.522 0.645569 116.105 2.24108 116.105 8.15038C116.105 12.7005 113.967 14.4733 111.308 15.1825ZM99.0568 11.9323H107.321C110.442 11.9323 111.077 10.6914 111.077 8.20948C111.077 5.78666 110.384 4.54571 107.321 4.54571H99.0568V11.9323Z" fill="#AEC0CE"/>
</svg>
