<svg width="152" height="46" viewBox="0 0 152 46" fill="none" xmlns="http://www.w3.org/2000/svg">
<path d="M0.927032 45.5H0.427032L0.427032 46H0.927032V45.5ZM38.5104 30.6667C38.5104 30.3905 38.2865 30.1667 38.0104 30.1667C37.7342 30.1667 37.5104 30.3905 37.5104 30.6667L38.5104 30.6667ZM38.0104 45.5V46H38.5104V45.5H38.0104ZM0.427034 30.6667L0.427032 45.5H1.42703L1.42703 30.6667L0.427034 30.6667ZM37.5104 30.6667L37.5104 45.5H38.5104L38.5104 30.6667L37.5104 30.6667ZM0.927032 46H38.0104V45H0.927032V46Z" fill="black"/>
<path d="M38.0103 1H38.5103V0.5H38.0103V1ZM0.427002 15.8333C0.427002 16.1095 0.65086 16.3333 0.927002 16.3333C1.20314 16.3333 1.427 16.1095 1.427 15.8333H0.427002ZM0.927003 1L0.927003 0.5H0.427003L0.427003 1L0.927003 1ZM38.5103 15.8333V1H37.5103V15.8333H38.5103ZM1.427 15.8333L1.427 1L0.427003 1L0.427002 15.8333H1.427ZM38.0103 0.5L0.927003 0.5L0.927003 1.5H38.0103V0.5Z" fill="black"/>
<path d="M9.90454 37.1562V8.3551H13.908V24.0703C16.0459 21.4809 18.5953 18.5065 21.5565 15.1471C24.5309 11.7876 26.5226 9.52361 27.5318 8.3551H31.8739L21.0585 21.2618L32.4515 37.1562H28.0098L18.2501 23.413L13.908 27.8347V37.1562H9.90454Z" fill="#222222"/>
<path d="M51.4567 37.5184C48.801 37.5184 46.6402 36.6493 44.9744 34.911C43.3085 33.1606 42.4756 30.8248 42.4756 27.9035V27.2879C42.4756 25.3444 42.8438 23.6121 43.5801 22.0911C44.3285 20.5581 45.3667 19.363 46.6945 18.5059C48.0345 17.6368 49.483 17.2022 51.0402 17.2022C53.5873 17.2022 55.567 18.0412 56.9794 19.7191C58.3917 21.397 59.0979 23.7992 59.0979 26.9257V28.32H45.8254C45.8737 30.2514 46.435 31.8147 47.5094 33.0097C48.5958 34.1927 49.9719 34.7842 51.6378 34.7842C52.8208 34.7842 53.8227 34.5428 54.6436 34.0599C55.4644 33.5771 56.1827 32.9373 56.7983 32.1406L58.8444 33.734C57.2027 36.2569 54.7401 37.5184 51.4567 37.5184ZM51.0402 19.9545C49.6882 19.9545 48.5535 20.4494 47.6361 21.4393C46.7187 22.4171 46.1513 23.7932 45.934 25.5677H55.7481V25.3142C55.6515 23.6121 55.1928 22.2964 54.3719 21.3669C53.5511 20.4253 52.4405 19.9545 51.0402 19.9545Z" fill="black"/>
<path d="M76.1693 20.5701C75.6623 20.4856 75.113 20.4434 74.5215 20.4434C72.3245 20.4434 70.8337 21.3789 70.0491 23.25V37.1562H66.6993V17.5644H69.9585L70.0129 19.8278C71.1114 18.0774 72.6686 17.2022 74.6845 17.2022C75.3363 17.2022 75.8313 17.2867 76.1693 17.4557V20.5701Z" fill="black"/>
<path d="M86.1427 17.5644L86.2513 20.0269C87.7482 18.1438 89.7037 17.2022 92.118 17.2022C96.2585 17.2022 98.3468 19.538 98.3831 24.2097V37.1562H95.0332V24.1916C95.0212 22.7792 94.6952 21.735 94.0555 21.059C93.4277 20.383 92.4439 20.045 91.104 20.045C90.0176 20.045 89.0639 20.3348 88.2431 20.9142C87.4222 21.4936 86.7824 22.2541 86.3237 23.1957V37.1562H82.9739V17.5644H86.1427Z" fill="black"/>
<path d="M110.783 37.1562H107.433V17.5644H110.783V37.1562ZM107.161 12.3676C107.161 11.8244 107.324 11.3657 107.65 10.9915C107.988 10.6173 108.483 10.4302 109.135 10.4302C109.787 10.4302 110.282 10.6173 110.62 10.9915C110.958 11.3657 111.127 11.8244 111.127 12.3676C111.127 12.9108 110.958 13.3635 110.62 13.7257C110.282 14.0878 109.787 14.2689 109.135 14.2689C108.483 14.2689 107.988 14.0878 107.65 13.7257C107.324 13.3635 107.161 12.9108 107.161 12.3676Z" fill="black"/>
<path d="M121.517 37.1562V20.1537H118.42V17.5644H121.517V15.5545C121.517 13.4541 122.078 11.8305 123.201 10.6837C124.323 9.53689 125.911 8.9635 127.963 8.9635C128.735 8.9635 129.502 9.06611 130.262 9.27132L130.081 11.9874C129.514 11.8787 128.91 11.8244 128.271 11.8244C127.184 11.8244 126.345 12.1443 125.754 12.7841C125.162 13.4118 124.866 14.3172 124.866 15.5002V17.5644H129.049V20.1537H124.866V37.1562H121.517Z" fill="black"/>
<path d="M142.879 32.2492L147.442 17.5644H151.028L143.151 40.1801C141.932 43.4394 139.994 45.0691 137.339 45.0691L136.705 45.0147L135.456 44.7793V42.0633L136.361 42.1357C137.496 42.1357 138.377 41.9063 139.005 41.4476C139.644 40.9889 140.169 40.15 140.58 38.9307L141.322 36.939L134.333 17.5644H137.991L142.879 32.2492Z" fill="black"/>
</svg>
